<svg class="icon" viewBox="0 0 1024 1024" xmlns="http://www.w3.org/2000/svg" width="200" height="200"><defs><style/></defs><path d="M512 92a420 420 0 100 840 420 420 0 000-840zm0-60a480 480 0 110 960 480 480 0 010-960zm6.48 255.84c-51.84 0-92.16 15.84-120.96 47.52-28.8 30.24-42.48 70.56-42.48 120.96h56.88c0-35.28 7.92-62.64 23.76-82.8 17.28-23.76 43.92-35.28 79.92-35.28 30.24 0 54 7.92 70.56 25.2 15.84 15.84 24.48 38.16 24.48 66.96 0 20.16-7.2 38.88-21.6 56.88a319.2 319.2 0 01-24.48 25.92c-38.88 34.56-62.64 61.92-72.72 83.52-8.64 18-12.96 38.88-12.96 62.64v16.56h57.6v-16.56c0-19.44 4.32-36.72 13.68-52.56 7.2-12.96 18-25.92 33.84-39.6 31.68-28.08 51.12-46.8 58.32-55.44 18-23.76 27.36-51.84 27.36-84.24 0-43.2-13.68-77.04-40.32-101.52-28.08-25.92-64.8-38.16-110.88-38.16zm-10.8 438.48a41.22 41.22 0 00-30.96 12.24 38.64 38.64 0 00-12.24 30.24c0 12.24 3.6 22.32 12.24 30.96A44.16 44.16 0 00507.68 812a44.16 44.16 0 0030.96-12.24 39.72 39.72 0 0012.96-30.96 41.22 41.22 0 00-12.24-30.24 42.84 42.84 0 00-31.68-12.24z"/></svg>