<svg class="icon" viewBox="0 0 1024 1024" xmlns="http://www.w3.org/2000/svg" width="200" height="200"><defs><style/></defs><path d="M972.099 1016.986H259.507c-19.639 0-35.069-15.43-35.069-35.068V768.7c-8.416 5.611-18.235 9.82-28.054 12.625h-1.403c-12.625 4.208-26.652 5.611-39.277 5.611-77.15 0-138.871-63.123-138.871-138.871 0-77.15 63.123-138.871 138.871-138.871 14.028 0 28.055 2.805 42.082 7.013 1.403 0 2.806 1.403 4.209 1.403 7.013 2.805 14.027 5.61 19.638 8.416l2.805 1.403V269.326c0-19.638 15.43-35.068 35.069-35.068h228.646l-4.208-8.417c-7.013-11.222-12.624-22.444-15.43-35.068v-1.403c-4.208-12.625-5.61-26.652-5.61-39.277 0-77.15 63.122-138.871 138.87-138.871 77.151 0 138.872 63.123 138.872 138.871 0 14.028-2.806 28.055-7.014 42.082 0 1.403-1.403 2.806-1.403 4.209-2.805 7.013-5.61 14.027-8.416 19.638l-7.014 16.833h255.299c19.638 0 35.068 15.43 35.068 35.068v314.214c0 11.222-5.61 22.444-15.43 29.458-9.82 7.013-22.444 7.013-33.666 2.805l-60.318-26.652c-1.402 0-1.402-1.403-2.805-1.403-2.806-1.403-7.014-4.208-11.222-5.61h-1.403c-7.013-2.806-14.027-2.806-21.04-2.806-37.875 0-68.735 30.86-68.735 68.734s30.86 68.734 68.734 68.734c7.014 0 14.028-1.402 19.639-2.805 7.013-1.403 12.624-5.611 18.235-8.417 1.403-1.402 2.806-1.402 4.208-2.805l53.304-25.25c11.222-5.61 23.847-4.208 33.666 1.403s16.833 18.236 16.833 29.458v274.937c0 19.638-15.43 35.068-35.068 35.068zM294.575 946.85H937.03V764.493h-1.403c-11.222 7.014-22.443 12.625-35.068 16.833h-1.403c-12.624 4.208-26.652 5.611-39.277 5.611-77.15 0-138.87-63.123-138.87-138.871 0-77.15 63.123-138.871 138.87-138.871 14.028 0 28.055 2.805 42.083 7.013 1.402 0 2.805 1.403 4.208 1.403 7.014 2.805 14.027 5.61 19.638 8.416l9.82 4.209V305.797H662.092c-11.222 0-22.444-5.61-29.457-15.43-7.014-9.82-7.014-22.444-2.806-33.666l29.458-67.331c0-1.403 1.402-1.403 1.402-2.806 1.403-2.805 4.209-7.013 5.611-11.222v-1.402c2.806-7.014 2.806-14.028 2.806-21.041 0-37.874-30.86-68.735-68.734-68.735s-68.735 30.86-68.735 68.735c0 7.013 1.403 14.027 2.806 19.638 1.403 7.014 5.61 12.625 8.416 18.236 1.403 1.402 1.403 2.805 2.806 4.208l28.055 60.318c5.61 11.222 4.208 23.846-1.403 33.665s-18.236 16.833-29.458 16.833H294.575v274.937c0 11.222-5.61 22.444-15.43 29.458-9.819 7.013-22.444 7.013-33.666 2.805l-53.304-23.846c-1.402 0-1.402-1.403-2.805-1.403-2.806-1.403-7.014-4.208-11.222-5.611h-1.403c-7.013-2.805-14.027-2.805-21.04-2.805-37.875 0-68.735 30.86-68.735 68.734s30.86 68.734 68.734 68.734c7.014 0 14.028-1.403 19.638-2.805 7.014-1.403 12.625-5.611 18.236-8.417 1.403-1.403 2.806-1.403 4.208-2.805l46.29-22.444c11.223-5.611 23.847-4.208 33.666 1.403 9.82 7.013 16.833 18.235 16.833 29.457v235.66z"/></svg>