<svg class="icon" viewBox="0 0 1055 1024" xmlns="http://www.w3.org/2000/svg" width="206.055" height="200"><defs><style/></defs><path d="M93.09 0h868.85a93.09 93.09 0 0193.09 93.09v620.607a93.09 93.09 0 01-93.09 93.09H93.09A93.09 93.09 0 010 713.698V93.091A93.09 93.09 0 0193.09 0zm0 62.06a31.03 31.03 0 00-31.03 31.03v620.607a31.03 31.03 0 0031.03 31.03h868.85a31.03 31.03 0 0031.03-31.03V93.091a31.03 31.03 0 00-31.03-31.03H93.09z"/><path d="M217.212 279.273h620.606q31.03 0 31.03 31.03t-31.03 31.03H217.212q-31.03 0-31.03-31.03t31.03-31.03zm0 217.212h620.606q31.03 0 31.03 31.03t-31.03 31.03H217.212q-31.03 0-31.03-31.03t31.03-31.03zm124.121 341.333h372.364q31.03 0 31.03 31.03t-31.03 31.03H341.333q-31.03 0-31.03-31.03t31.03-31.03zM155.151 961.94H899.88q31.03 0 31.03 31.03T899.88 1024H155.152q-31.03 0-31.03-31.03t31.03-31.03z"/><path d="M310.303 372.364V248.242q0-31.03 31.03-31.03t31.03 31.03v124.122q0 31.03-31.03 31.03t-31.03-31.03zm372.364 217.212V465.455q0-31.03 31.03-31.03t31.03 31.03v124.12q0 31.031-31.03 31.031t-31.03-31.03z"/></svg>