<svg class="icon" viewBox="0 0 1024 1024" xmlns="http://www.w3.org/2000/svg" width="200" height="200"><defs><style/></defs><path d="M289.28 758.4a32.64 32.64 0 01-21.12-8.32L15.36 522.24a30.72 30.72 0 01-10.88-23.68 35.84 35.84 0 0110.88-23.68l256-222.72a32 32 0 1142.24 48L85.12 498.56 311.04 704a32 32 0 010 45.44 32 32 0 01-21.76 8.96zm442.24 0a32.64 32.64 0 01-23.68-10.88 32.64 32.64 0 010-45.44l225.92-203.52-223.36-198.4a32 32 0 010-45.44 31.36 31.36 0 0144.8 0l256 222.72a31.36 31.36 0 010 47.36L759.04 752.64a35.2 35.2 0 01-27.52 5.76zM441.6 866.56h-5.12A32.64 32.64 0 01410.24 832l112.64-686.72A32.64 32.64 0 01560 119.04a31.36 31.36 0 0126.24 36.48L473.6 840.32a32 32 0 01-32 26.24z"/></svg>