<svg class="icon" viewBox="0 0 1024 1024" xmlns="http://www.w3.org/2000/svg" width="200" height="200"><path d="M65.77 385.77c-11.775 0-21.333-9.557-21.333-21.333v-256c0-11.776 9.558-21.333 21.334-21.333s21.333 9.557 21.333 21.333v256c0 11.776-9.557 21.334-21.333 21.334z"/><path d="M300.437 385.77H65.771c-11.776 0-21.334-9.557-21.334-21.333s9.558-21.333 21.334-21.333h234.666c11.776 0 21.334 9.557 21.334 21.333s-9.558 21.334-21.334 21.334zM513.77 620.437c-11.775 0-21.333-9.557-21.333-21.333v-384c0-11.776 9.558-21.333 21.334-21.333s21.333 9.557 21.333 21.333v384c0 11.776-9.557 21.333-21.333 21.333z"/><path d="M634.965 684.885c-5.952 0-11.861-2.474-16.064-7.296l-185.6-212.266c-7.744-8.875-6.848-22.336 2.027-30.102 8.896-7.744 22.357-6.826 30.101 2.027l185.6 212.267c7.744 8.874 6.848 22.336-2.026 30.101-4.054 3.499-9.067 5.27-14.038 5.27z"/><path d="M513.77 983.104c-258.794 0-469.333-210.539-469.333-469.333 0-11.776 9.558-21.334 21.334-21.334s21.333 9.558 21.333 21.334c0 235.264 191.403 426.666 426.667 426.666 235.264 0 426.666-191.402 426.666-426.666S749.035 87.104 513.771 87.104c-173.568 0-328.448 103.68-394.624 264.128-4.459 10.88-16.896 16.085-27.862 11.584-10.88-4.48-16.085-16.96-11.584-27.861C152.47 158.485 322.86 44.437 513.771 44.437c258.794 0 469.333 210.539 469.333 469.334S772.565 983.104 513.771 983.104z"/></svg>