<svg class="icon" viewBox="0 0 1024 1024" xmlns="http://www.w3.org/2000/svg" width="200" height="200"><defs><style/></defs><path d="M896 192v73.6l64 54.4V160c0-19.2-12.8-32-32-32H736l73.6 64H896zM544 64h-64L0 480v32c0 19.2 12.8 32 32 32h96v384c0 19.2 12.8 32 32 32h256c19.2 0 32-12.8 32-32V640h128v288c0 19.2 12.8 32 32 32h256c19.2 0 32-12.8 32-32V544h96c19.2 0 32-12.8 32-32v-32L544 64zm320 416c-19.2 0-32 12.8-32 32v384H640V608c0-19.2-12.8-32-32-32H416c-19.2 0-32 12.8-32 32v288H192V512c0-19.2-12.8-32-32-32h-57.6L512 128l409.6 352H864z"/></svg>