<svg class="icon" viewBox="0 0 1024 1024" xmlns="http://www.w3.org/2000/svg" width="200" height="200"><path d="M146.571 49.951h200.724c41.53 0 75.105 33.505 75.105 75.108v224.419c0 41.5-33.636 75.107-75.105 75.107H146.571c-41.53 0-75.104-33.504-75.104-75.107v-224.42c0-41.499 33.636-75.107 75.104-75.107zM21.333 349.478c0 69.173 56.003 125.059 125.238 125.059h200.724c69.189 0 125.238-56.004 125.238-125.06V125.06C472.533 55.886 416.531 0 347.295 0H146.571C77.383 0 21.333 56.004 21.333 125.059v224.419zm125.238 249.937h200.724c41.53 0 75.105 33.504 75.105 75.107v224.42c0 41.499-33.636 75.107-75.105 75.107H146.571c-41.53 0-75.104-33.505-75.104-75.108V674.522c0-41.5 33.636-75.107 75.104-75.107zM21.333 898.94c0 69.173 56.003 125.059 125.238 125.059h200.724c69.189 0 125.238-56.004 125.238-125.059V674.522c0-69.173-56.002-125.059-125.238-125.059H146.571c-69.188 0-125.238 56.004-125.238 125.06V898.94zm977.6-749.086c13.844 0 25.067-11.182 25.067-24.976 0-13.794-11.223-24.976-25.067-24.976H572.8c-13.844 0-25.067 11.182-25.067 24.976 0 13.794 11.223 24.976 25.067 24.976h426.133zm0 124.878c13.844 0 25.067-11.182 25.067-24.976 0-13.794-11.223-24.976-25.067-24.976H572.8c-13.844 0-25.067 11.182-25.067 24.976 0 13.794 11.223 24.976 25.067 24.976h426.133zm0 124.878c13.844 0 25.067-11.182 25.067-24.976 0-13.794-11.223-24.975-25.067-24.975H572.8c-13.844 0-25.067 11.181-25.067 24.975 0 13.794 11.223 24.976 25.067 24.976h426.133zm0 274.731c13.844 0 25.067-11.181 25.067-24.975 0-13.794-11.223-24.976-25.067-24.976H572.8c-13.844 0-25.067 11.182-25.067 24.976 0 13.794 11.223 24.975 25.067 24.975h426.133zm0 124.879c13.844 0 25.067-11.182 25.067-24.976 0-13.794-11.223-24.976-25.067-24.976H572.8c-13.844 0-25.067 11.182-25.067 24.976 0 13.794 11.223 24.976 25.067 24.976h426.133zm0 124.878c13.844 0 25.067-11.182 25.067-24.976 0-13.794-11.223-24.976-25.067-24.976H572.8c-13.844 0-25.067 11.182-25.067 24.976 0 13.794 11.223 24.976 25.067 24.976h426.133z"/></svg>