<svg class="icon" viewBox="0 0 1024 1024" xmlns="http://www.w3.org/2000/svg" width="200" height="200"><defs><style/></defs><path d="M110.933 352l384 192c4.267 2.133 10.667 4.267 17.067 4.267s10.667-2.134 17.067-4.267l384-192c12.8-6.4 19.2-19.2 19.2-32s-8.534-25.6-19.2-32l-384-192c-10.667-4.267-21.334-4.267-32 0l-384 192c-12.8 6.4-19.2 19.2-19.2 32s6.4 25.6 17.066 32zM512 168.533L814.933 320 512 471.467 209.067 320 512 168.533zM878.933 672L512 855.467 145.067 672c-17.067-8.533-38.4-2.133-49.067 17.067-8.533 17.066-2.133 38.4 17.067 49.066l384 192c4.266 2.134 10.666 4.267 17.066 4.267s10.667-2.133 17.067-4.267l384-192c17.067-8.533 25.6-29.866 17.067-49.066-12.8-19.2-34.134-25.6-53.334-17.067z"/><path d="M878.933 480L512 663.467 145.067 480c-17.067-8.533-38.4-2.133-49.067 17.067-8.533 17.066-2.133 38.4 17.067 49.066l384 192c4.266 2.134 10.666 4.267 17.066 4.267s10.667-2.133 17.067-4.267l384-192c17.067-8.533 25.6-29.866 17.067-49.066-12.8-19.2-34.134-25.6-53.334-17.067z"/></svg>