<svg class="icon" viewBox="0 0 1024 1024" xmlns="http://www.w3.org/2000/svg" width="200" height="200"><defs><style/></defs><path d="M280.682 686.034l-70.026 69.906H66.598V600.838c0-16.748-13.593-30.341-30.34-30.341S5.915 584.09 5.915 600.837v289.937c0 16.748 13.593 30.34 30.341 30.34s30.34-13.592 30.34-30.34V816.62H226.19c.243 0 .607-.121.85-.121.242 0 .364 0 .607-.122.364 0 .606-.121.97-.121.122 0 .365 0 .486-.121.364-.122.607-.122.97-.243.122 0 .365-.122.486-.122.364-.12.607-.12.971-.242.122 0 .364-.122.486-.122.242-.121.606-.242.85-.242.242-.122.363-.122.606-.243s.485-.243.728-.243c.243-.121.486-.121.607-.242.243-.122.485-.243.607-.243l.728-.364c.243-.122.364-.243.607-.243l.728-.364c.121-.121.364-.121.485-.243.243-.121.607-.364.85-.485.121-.122.243-.122.364-.243.243-.121.607-.364.85-.485.121-.122.242-.243.364-.243.242-.243.485-.364.85-.607a1.65 1.65 0 01.485-.364c.242-.243.485-.364.728-.607.243-.121.364-.364.607-.485.242-.122.364-.364.606-.486.365-.243.607-.607.971-.85l.122-.12 78.886-78.887c11.893-11.893 11.893-31.069 0-42.962a30.217 30.217 0 00-42.963-.122zm703.299-182.772L451.319 161.746c-.486-.485-1.093-.85-1.7-1.213a50.794 50.794 0 00-3.398-2.063l-79.371-50.851a30.103 30.103 0 00-16.384-4.855h-82.284c-10.195 0-19.661 5.097-25.244 13.593L79.098 362.602c-.121.122-.242.243-.242.486-20.147 31.554-11.044 73.546 20.51 93.813l492.612 315.787c20.268 12.985 43.327 19.54 66.507 19.54 20.753 0 41.385-5.22 60.196-15.778l261.537-146.364c22.938-12.864 37.016-36.166 37.866-62.38.728-26.215-12.015-50.366-34.103-64.444zM129.828 395.977l154.616-232.41h57.162l48.06 30.826L210.292 455.81l-78.158-50.002c-3.277-2.184-4.37-6.553-2.306-9.83zm827.574 169.908c-.121 2.792-1.092 8.01-6.796 11.166L689.069 723.536c-20.147 11.286-44.905 10.558-64.323-1.942l-363.36-233.017L440.76 227.04l510.574 327.316c5.461 3.52 6.19 8.738 6.068 11.53z"/></svg>