<svg class="icon" viewBox="0 0 1024 1024" xmlns="http://www.w3.org/2000/svg" width="200" height="200"><defs><style/></defs><path d="M216.178 284.444c-13.654 0-22.756 9.103-22.756 22.756s9.102 22.756 22.756 22.756c13.653 0 22.755-9.103 22.755-22.756s-9.102-22.756-22.755-22.756zm-91.022 0c-13.654 0-22.756 9.103-22.756 22.756s9.102 22.756 22.756 22.756c13.653 0 22.755-9.103 22.755-22.756s-9.102-22.756-22.755-22.756zm591.644 0H398.222c-13.653 0-22.755 9.103-22.755 22.756s9.102 22.756 22.755 22.756H716.8c13.653 0 22.756-9.103 22.756-22.756s-9.103-22.756-22.756-22.756zM921.6 11.378H284.444c-50.062 0-91.022 40.96-91.022 91.022v22.756c0 13.653 9.102 22.755 22.756 22.755 13.653 0 22.755-9.102 22.755-22.755V102.4c0-25.031 20.48-45.511 45.511-45.511H921.6c25.031 0 45.511 20.48 45.511 45.511v637.156c0 25.03-20.48 45.51-45.511 45.51h-22.756c-13.653 0-22.755 9.103-22.755 22.756s9.102 22.756 22.755 22.756H921.6c50.062 0 91.022-40.96 91.022-91.022V102.4c0-50.062-40.96-91.022-91.022-91.022zM307.2 284.444c-13.653 0-22.756 9.103-22.756 22.756s9.103 22.756 22.756 22.756 22.756-9.103 22.756-22.756-9.103-22.756-22.756-22.756zm432.356-91.022H102.4c-50.062 0-91.022 40.96-91.022 91.022V921.6c0 50.062 40.96 91.022 91.022 91.022h637.156c50.062 0 91.022-40.96 91.022-91.022V284.444c0-50.062-40.96-91.022-91.022-91.022zm45.51 728.178c0 25.031-20.48 45.511-45.51 45.511H102.4c-25.031 0-45.511-20.48-45.511-45.511V420.978h728.178V921.6zm0-546.133H56.89v-91.023c0-25.03 20.48-45.51 45.511-45.51h637.156c25.03 0 45.51 20.48 45.51 45.51v91.023z"/></svg>