<svg class="icon" viewBox="0 0 1024 1024" xmlns="http://www.w3.org/2000/svg" width="200" height="200"><defs><style/></defs><path d="M5.468 109.545v820.849h1005.925V109.545H5.468zm377.221 527.69v-175.9h251.48v175.9H382.69zm251.48 58.633v175.894H382.69V695.868h251.48zm0-469.061v175.896H382.69V226.807h251.48zm-314.354 0v175.896H68.335V226.807h251.48zM68.335 461.335h251.481v175.9H68.336v-175.9zm628.703 0h251.478v175.9H697.038v-175.9zm0-58.632V226.807h251.478v175.896H697.038zM68.336 695.868h251.48v175.894H68.336V695.868zm628.702 175.894V695.868h251.478v175.894H697.038zm0 0"/></svg>