<svg class="icon" viewBox="0 0 1024 1024" xmlns="http://www.w3.org/2000/svg" width="200" height="200"><defs><style/></defs><path d="M988.39 905.54H242.736c-20.713 0-41.425 16.57-41.425 41.425s16.57 41.425 41.425 41.425H988.39c20.713 0 41.425-16.57 41.425-41.425s-16.57-41.425-41.425-41.425zm0-165.701H242.736c-20.713 0-41.425 16.57-41.425 41.425s16.57 41.425 41.425 41.425H988.39c20.713 0 41.425-16.57 41.425-41.425s-16.57-41.425-41.425-41.425zm0-704.23H35.61c-20.713 0-41.425 16.571-41.425 41.426v207.126c0 24.855 16.57 41.425 41.425 41.425h952.78c20.713 0 41.425-16.57 41.425-41.425V77.035c0-24.855-16.57-41.425-41.425-41.425zm-41.425 207.127H77.035V118.46h869.93v124.276zm41.425 331.402H242.736c-20.713 0-41.425 16.57-41.425 41.425s16.57 41.425 41.425 41.425H988.39c20.713 0 41.425-16.57 41.425-41.425s-16.57-41.425-41.425-41.425zm0-165.701H242.736c-20.713 0-41.425 16.57-41.425 41.425s16.57 41.425 41.425 41.425H988.39c20.713 0 41.425-16.57 41.425-41.425s-16.57-41.425-41.425-41.425z"/></svg>