<svg class="icon" viewBox="0 0 1024 1024" xmlns="http://www.w3.org/2000/svg" width="200" height="200"><path d="M524.8 21.504c-162.816 0-294.4 132.096-294.4 295.424 0 111.616 61.952 209.408 153.088 259.584C166.912 628.224 0 804.352 0 998.4c0 0 0 25.6 26.624 25.6S51.2 998.4 51.2 998.4c0-200.704 212.48-385.536 460.8-385.536h12.8c162.816 0 294.4-132.608 294.4-295.936S687.616 21.504 524.8 21.504zm0 539.648c-134.144 0-243.2-109.056-243.2-244.224 0-134.656 109.056-244.224 243.2-244.224S768 182.272 768 316.928c0 135.168-109.056 244.224-243.2 244.224zm499.712 248.832c0 13.312-10.752 24.576-24.576 24.576h-163.84V998.4c0 13.312-10.752 24.576-24.576 24.576s-24.576-11.264-24.576-24.576V834.56h-163.84c-13.312 0-24.576-11.264-24.576-24.576 0-13.312 11.264-24.576 24.576-24.576h163.84v-163.84c0-13.312 11.264-24.576 24.576-24.576s24.576 11.264 24.576 24.576v163.84h163.84c13.824 0 24.576 11.264 24.576 24.576z"/></svg>