<svg width="31" height="31" viewBox="0 0 31 31" fill="none" xmlns="http://www.w3.org/2000/svg">
<path d="M21.615 28H7.38333C6.75122 27.9991 6.14526 27.7341 5.69844 27.2632C5.25162 26.7922 5.00043 26.1538 5 25.488V15.512C5 14.1267 6.06974 13 7.38333 13H21.615C22.9303 13 24 14.1267 24 15.512V25.488C24 26.8733 22.9303 28 21.615 28ZM7.38333 14.7123C7.18226 14.7128 6.98956 14.7972 6.84753 14.9471C6.7055 15.0971 6.62574 15.3002 6.62574 15.512V25.488C6.62574 25.9298 6.96552 26.2877 7.38333 26.2877H21.615C21.8164 26.2877 22.0095 26.2034 22.1519 26.0535C22.2943 25.9035 22.3743 25.7001 22.3743 25.488V15.512C22.3743 15.2999 22.2943 15.0965 22.1519 14.9465C22.0095 14.7966 21.8164 14.7123 21.615 14.7123H7.38333Z" fill="#9E2E17"/>
<path d="M9.7759 14C9.57012 14 9.37276 13.9172 9.22725 13.7697C9.08175 13.6222 9 13.4222 9 13.2137V10.0811C9.00123 8.46898 9.63364 6.92318 10.7584 5.78306C11.8832 4.64294 13.4084 4.00167 14.9992 4C16.5902 4.00167 18.1156 4.64289 19.2406 5.78297C20.3656 6.92304 20.9984 8.46884 21 10.0811C21 10.2897 20.9183 10.4897 20.7727 10.6371C20.6272 10.7846 20.4299 10.8674 20.2241 10.8674C20.0183 10.8674 19.821 10.7846 19.6755 10.6371C19.53 10.4897 19.4482 10.2897 19.4482 10.0811C19.447 8.88578 18.9778 7.73973 18.1438 6.89448C17.3097 6.04923 16.1788 5.57382 14.9992 5.57257C13.8199 5.57424 12.6894 6.04983 11.8557 6.89504C11.0219 7.74024 10.553 8.88605 10.5518 10.0811V13.2137C10.5518 13.4222 10.47 13.6222 10.3245 13.7697C10.179 13.9172 9.98168 14 9.7759 14Z" fill="#9E2E17"/>
</svg>
