<svg width="359" height="380" viewBox="0 0 359 380" fill="none" xmlns="http://www.w3.org/2000/svg">
<rect x="0.5" y="36.5" width="358" height="257" rx="19.5" stroke="#D94B2F"/>
<path d="M72.076 105.258H67.75C68.758 107.624 70.522 109.836 72.454 110.928C72.188 111.152 71.824 111.53 71.656 111.81C69.584 110.508 67.778 107.988 66.728 105.258H66.532V110.424H69.78V111.46H66.532V114.064H65.454V111.46H62.206V110.424H65.454V105.258H65.23C64.152 107.988 62.346 110.48 60.33 111.852C60.162 111.6 59.826 111.222 59.588 111.026C61.436 109.892 63.158 107.624 64.18 105.258H59.952V104.222H65.454V101.296H66.532V104.222H72.076V105.258ZM77.032 109.85L78.068 110.214C77.228 111.334 75.996 112.496 74.946 113.238C74.736 113.042 74.316 112.692 74.036 112.552C75.156 111.88 76.304 110.844 77.032 109.85ZM84.116 108.702L80.658 108.954V112.692C80.658 113.28 80.532 113.56 80.07 113.728C79.622 113.91 78.922 113.91 77.9 113.91C77.858 113.602 77.676 113.182 77.508 112.888C78.348 112.916 79.104 112.916 79.328 112.916C79.566 112.902 79.608 112.846 79.608 112.678V109.038C75.786 109.318 75.24 109.402 74.848 109.556C74.806 109.346 74.652 108.87 74.526 108.59C74.988 108.534 75.604 108.268 76.472 107.834C76.948 107.61 77.97 107.05 79.174 106.322C76.332 106.49 75.884 106.546 75.618 106.658C75.562 106.462 75.422 105.986 75.31 105.72C75.604 105.692 75.926 105.482 76.332 105.16C76.696 104.936 77.718 104.11 78.628 103.158C77.326 103.27 76.024 103.354 74.806 103.41C74.778 103.144 74.652 102.738 74.54 102.5C77.914 102.318 81.96 101.954 84.2 101.394L84.942 102.248C83.612 102.57 81.89 102.836 80.07 103.018C79.16 103.97 78.138 104.88 77.144 105.594L80.532 105.426C81.288 104.922 82.058 104.362 82.758 103.788L83.556 104.46C81.512 106.014 79.384 107.302 77.284 108.31L83.402 107.918C83.038 107.512 82.646 107.134 82.282 106.784L83.066 106.378C84.158 107.33 85.348 108.618 85.922 109.458L85.096 109.962C84.858 109.612 84.508 109.164 84.116 108.702ZM81.89 110.312L82.716 109.78C83.864 110.62 85.306 111.852 86.048 112.636L85.166 113.266C84.48 112.482 83.052 111.208 81.89 110.312ZM100.23 107.932L99.362 108.436C99.222 108.142 99.026 107.792 98.802 107.414C93.748 107.89 93.16 107.96 92.782 108.128C92.726 107.876 92.53 107.33 92.432 107.12C92.684 107.05 93.048 106.952 93.3 106.686C93.622 106.392 94.616 105.118 95.232 104.25H92.712V103.312H96.086C95.946 102.836 95.596 102.08 95.33 101.52L96.282 101.254C96.59 101.814 96.954 102.584 97.122 103.032L96.24 103.312H100.216V104.25H96.45C95.862 105.076 95.064 106.154 94.448 106.91L98.284 106.588C97.99 106.14 97.668 105.678 97.36 105.272L98.172 104.866C98.914 105.846 99.824 107.148 100.23 107.932ZM89.548 108.954L92.166 108.436C92.138 108.716 92.152 109.136 92.194 109.346C88.736 110.102 88.274 110.242 87.98 110.424C87.924 110.214 87.756 109.71 87.644 109.43C87.924 109.36 88.26 109.024 88.694 108.506C88.946 108.24 89.492 107.54 90.08 106.672C88.414 106.91 88.092 106.98 87.882 107.092C87.826 106.854 87.644 106.322 87.518 106.014C87.77 105.958 88.036 105.636 88.33 105.174C88.666 104.712 89.702 102.92 90.304 101.24L91.368 101.73C90.71 103.186 89.87 104.698 89.016 105.902L90.71 105.72C91.032 105.23 91.326 104.698 91.592 104.194L92.516 104.74C91.648 106.252 90.598 107.736 89.548 108.954ZM92.152 110.914L92.32 111.824C90.766 112.328 89.128 112.846 87.882 113.252L87.644 112.216C88.764 111.922 90.472 111.418 92.152 110.914ZM94.154 108.086H95.176C95.064 111.222 94.63 113 92.096 114.022C91.984 113.77 91.704 113.364 91.466 113.196C93.734 112.342 94.056 110.844 94.154 108.086ZM98.13 112.888H99.082C99.376 112.888 99.432 112.622 99.474 110.956C99.684 111.152 100.104 111.306 100.37 111.376C100.286 113.28 100.048 113.784 99.194 113.784H97.976C96.996 113.784 96.758 113.476 96.758 112.468V108.072H97.78V112.468C97.78 112.832 97.822 112.888 98.13 112.888ZM107.034 102.99V106.63H108.924V102.99H107.034ZM114.062 106.63V107.554H103.646V108.926C103.646 110.452 103.408 112.622 102.26 114.078C102.092 113.868 101.658 113.476 101.462 113.364C102.498 112.034 102.624 110.242 102.624 108.912V106.63H106.012V102.99H102.512V102.08H113.628V102.99H109.946V106.63H114.062ZM105.214 105.986L104.276 106.322C104.108 105.608 103.618 104.53 103.086 103.746L103.968 103.424C104.528 104.208 105.032 105.258 105.214 105.986ZM111.402 106.336L110.562 106.042C111.024 105.342 111.626 104.18 111.92 103.382L112.984 103.732C112.494 104.628 111.878 105.678 111.402 106.336ZM118.416 107.078V104.558C117.786 105.524 116.988 106.434 116.218 106.966C116.05 106.742 115.784 106.42 115.574 106.252C116.484 105.706 117.464 104.642 118.094 103.564H116.078V102.696H118.416V101.282H119.382V102.696H121.328V103.564H119.382V103.69C119.9 104.012 121.202 104.95 121.552 105.23L120.992 105.916C120.67 105.622 119.956 105.034 119.382 104.572V107.078H118.416ZM117.548 108.436V107.568H126.648V108.436H117.548ZM118.5 110.984L119.48 111.292C118.766 112.3 117.632 113.28 116.638 113.896C116.456 113.714 116.036 113.406 115.812 113.238C116.834 112.692 117.884 111.852 118.5 110.984ZM124.226 111.46L125.038 110.956C126.032 111.642 127.292 112.65 127.922 113.322L127.082 113.868C126.48 113.21 125.248 112.16 124.226 111.46ZM115.966 110.452V109.556H128.076V110.452H122.574V112.972C122.574 113.546 122.448 113.798 121.986 113.938C121.538 114.092 120.824 114.092 119.732 114.092C119.676 113.812 119.508 113.448 119.368 113.168C120.25 113.21 121.02 113.21 121.244 113.196C121.482 113.182 121.538 113.126 121.538 112.944V110.452H115.966ZM127.88 103.564H125.724C126.396 104.572 127.446 105.636 128.37 106.168C128.16 106.336 127.838 106.658 127.712 106.882C126.956 106.35 126.088 105.426 125.43 104.488V107.078H124.45V104.418C123.764 105.412 122.868 106.35 122 106.882C121.846 106.658 121.58 106.35 121.37 106.182C122.336 105.65 123.414 104.6 124.086 103.564H121.972V102.696H124.45V101.282H125.43V102.696H127.88V103.564ZM138.702 105.748V111.544H137.61V101.31H138.702V104.922L139.052 104.74C140.13 105.874 141.446 107.442 142.062 108.436L141.152 108.996C140.662 108.156 139.654 106.84 138.702 105.748ZM134.978 104.46H132.556C132.444 104.852 132.318 105.258 132.178 105.636C132.528 107.176 133.004 108.38 133.564 109.332C134.236 108.016 134.712 106.42 134.978 104.46ZM135.454 103.452L136.14 103.662C135.832 106.434 135.174 108.604 134.236 110.284C135.818 112.202 137.904 112.58 140.046 112.58C140.466 112.58 141.908 112.58 142.454 112.566C142.286 112.832 142.09 113.35 142.034 113.644H139.99C137.61 113.644 135.356 113.21 133.676 111.194C132.766 112.482 131.66 113.42 130.386 114.078C130.204 113.854 129.798 113.434 129.546 113.28C130.932 112.608 132.094 111.642 133.004 110.27C132.472 109.416 131.996 108.338 131.632 107.008C131.324 107.666 130.988 108.24 130.624 108.73C130.428 108.562 130.05 108.282 129.784 108.156C130.89 106.7 131.744 104.068 132.122 101.338L133.2 101.618C133.102 102.248 132.962 102.878 132.808 103.494H135.258L135.454 103.452ZM147.942 110.186L148.124 111.18C146.626 111.684 145.03 112.23 143.784 112.636L143.546 111.586C144.064 111.432 144.708 111.236 145.422 110.998V107.232H143.826V106.252H145.422V103.214H143.686V102.234H148.026V103.214H146.416V106.252H147.83V107.232H146.416V110.69L147.942 110.186ZM149.664 105.454V107.246H151.792V105.454H149.664ZM149.664 102.836V104.6H151.792V102.836H149.664ZM154.83 104.6V102.836H152.688V104.6H154.83ZM154.83 107.246V105.454H152.688V107.246H154.83ZM152.772 112.664H156.482V113.616H147.466V112.664H151.722V110.746H148.544V109.794H151.722V108.156H148.712V101.926H155.824V108.156H152.772V109.794H156.034V110.746H152.772V112.664ZM160.626 106.574L160.024 107.442C159.52 106.938 158.456 106.308 157.574 105.93L158.148 105.16C159.016 105.51 160.094 106.098 160.626 106.574ZM158.834 113.868L157.91 113.252C158.554 112.188 159.478 110.354 160.15 108.786L160.962 109.402C160.346 110.858 159.534 112.58 158.834 113.868ZM158.302 102.206L158.876 101.464C159.73 101.856 160.78 102.486 161.298 102.976L160.682 103.816C160.192 103.312 159.156 102.64 158.302 102.206ZM168.732 107.442L169.74 107.736C168.704 111.334 166.408 113.224 162.054 114.106C161.956 113.798 161.732 113.406 161.508 113.154C165.638 112.426 167.766 110.718 168.732 107.442ZM163.342 107.218L164.308 107.456C163.944 108.688 163.3 109.948 162.642 110.774C162.46 110.606 162.04 110.34 161.802 110.228C162.46 109.472 163.02 108.338 163.342 107.218ZM166.576 105.552H170.37V106.476H166.478V110.564H165.4V106.476H161.536V105.552H162.908V102.626H163.93V105.552H165.526V101.31H166.576V103.032H169.698V103.914H166.576V105.552ZM173.142 103.424V105.202H172.12V102.486H177.552C177.468 102.108 177.342 101.66 177.202 101.31L178.182 101.142C178.364 101.562 178.532 102.08 178.63 102.486H183.908V105.202H182.858V103.424H173.142ZM178.896 105.104L178.35 105.776C177.846 105.272 176.81 104.628 175.942 104.236L176.488 103.634C177.328 103.998 178.378 104.614 178.896 105.104ZM173.576 105.272L174.43 105.664C173.982 106.532 173.366 107.596 172.554 108.268L171.714 107.764C172.526 107.148 173.198 106.112 173.576 105.272ZM180.072 109.038H177.118C176.264 109.038 175.774 108.954 175.522 108.674C174.43 109.136 173.31 109.528 172.19 109.85C172.064 109.626 171.77 109.192 171.574 108.982C172.834 108.66 174.094 108.268 175.256 107.778V107.736V105.062H176.194V107.358C177.986 106.49 179.554 105.412 180.604 104.096L181.5 104.53C180.282 106.014 178.546 107.218 176.628 108.156C176.768 108.184 176.95 108.184 177.174 108.184H180.002C180.674 108.184 180.786 107.988 180.856 106.63C181.08 106.798 181.458 106.938 181.724 106.994C181.584 108.632 181.29 109.038 180.072 109.038ZM181.78 112.454V110.116H182.802V114.05H181.78V113.448H173.296V110.228H174.318V112.454H177.454V109.486H178.49V112.454H181.78ZM181.206 105.86L181.948 105.342C182.816 106.098 183.852 107.162 184.328 107.904L183.53 108.478C183.096 107.736 182.074 106.63 181.206 105.86ZM194.492 103.102L193.554 103.508C193.372 103.018 192.938 102.22 192.588 101.646L193.47 101.282C193.876 101.87 194.296 102.612 194.492 103.102ZM188.626 101.338L189.55 101.618C189.228 102.556 188.822 103.494 188.374 104.376V114.12H187.408V106.056C186.988 106.728 186.526 107.33 186.078 107.862C185.98 107.638 185.686 107.134 185.504 106.896C186.764 105.538 187.912 103.452 188.626 101.338ZM196.34 110.452H191.09V112.664H196.34V110.452ZM190.18 114.078V109.584H197.264V114.036H196.34V113.532H191.09V114.078H190.18ZM190.376 108.408V107.554H197.124V108.408H190.376ZM197.124 105.594V106.448H190.376V105.594H197.124ZM189.368 103.592H198.23V104.474H189.368V103.592ZM202.752 107.246V108.366H209.206V107.246H202.752ZM202.752 105.328V106.448H209.206V105.328H202.752ZM202.752 103.41V104.53H209.206V103.41H202.752ZM204.88 109.626L205.622 109.206H201.744V102.584H204.992C205.202 102.136 205.412 101.548 205.524 101.142L206.728 101.352C206.532 101.786 206.294 102.234 206.07 102.584H210.242V109.206H205.706C206.42 109.822 207.218 110.718 207.582 111.306L206.742 111.824C206.392 111.208 205.594 110.284 204.88 109.626ZM200.638 113.406L199.686 112.958C200.232 112.188 200.778 110.998 201.1 110.13L202.01 110.522C201.632 111.376 201.142 112.608 200.638 113.406ZM204.796 112.86H207.862C208.604 112.86 208.73 112.65 208.8 111.236C209.038 111.418 209.472 111.572 209.766 111.628C209.626 113.406 209.29 113.826 207.932 113.826H204.74C203.116 113.826 202.696 113.532 202.696 112.426V110.144H203.732V112.412C203.732 112.79 203.886 112.86 204.796 112.86ZM209.654 110.298L210.578 109.906C211.236 110.746 211.922 111.908 212.174 112.678L211.208 113.126C210.97 112.356 210.298 111.166 209.654 110.298ZM215.198 114.498L214.89 113.756C215.968 113.308 216.584 112.65 216.654 111.698C216.57 111.712 216.5 111.712 216.416 111.712C215.842 111.712 215.366 111.376 215.366 110.718C215.366 110.06 215.856 109.71 216.43 109.71C217.2 109.71 217.62 110.34 217.62 111.32C217.62 112.832 216.668 113.98 215.198 114.498ZM230.626 106.574L230.024 107.442C229.52 106.938 228.456 106.308 227.574 105.93L228.148 105.16C229.016 105.51 230.094 106.098 230.626 106.574ZM228.834 113.868L227.91 113.252C228.554 112.188 229.478 110.354 230.15 108.786L230.962 109.402C230.346 110.858 229.534 112.58 228.834 113.868ZM228.302 102.206L228.876 101.464C229.73 101.856 230.78 102.486 231.298 102.976L230.682 103.816C230.192 103.312 229.156 102.64 228.302 102.206ZM238.732 107.442L239.74 107.736C238.704 111.334 236.408 113.224 232.054 114.106C231.956 113.798 231.732 113.406 231.508 113.154C235.638 112.426 237.766 110.718 238.732 107.442ZM233.342 107.218L234.308 107.456C233.944 108.688 233.3 109.948 232.642 110.774C232.46 110.606 232.04 110.34 231.802 110.228C232.46 109.472 233.02 108.338 233.342 107.218ZM236.576 105.552H240.37V106.476H236.478V110.564H235.4V106.476H231.536V105.552H232.908V102.626H233.93V105.552H235.526V101.31H236.576V103.032H239.698V103.914H236.576V105.552ZM243.142 103.424V105.202H242.12V102.486H247.552C247.468 102.108 247.342 101.66 247.202 101.31L248.182 101.142C248.364 101.562 248.532 102.08 248.63 102.486H253.908V105.202H252.858V103.424H243.142ZM248.896 105.104L248.35 105.776C247.846 105.272 246.81 104.628 245.942 104.236L246.488 103.634C247.328 103.998 248.378 104.614 248.896 105.104ZM243.576 105.272L244.43 105.664C243.982 106.532 243.366 107.596 242.554 108.268L241.714 107.764C242.526 107.148 243.198 106.112 243.576 105.272ZM250.072 109.038H247.118C246.264 109.038 245.774 108.954 245.522 108.674C244.43 109.136 243.31 109.528 242.19 109.85C242.064 109.626 241.77 109.192 241.574 108.982C242.834 108.66 244.094 108.268 245.256 107.778V107.736V105.062H246.194V107.358C247.986 106.49 249.554 105.412 250.604 104.096L251.5 104.53C250.282 106.014 248.546 107.218 246.628 108.156C246.768 108.184 246.95 108.184 247.174 108.184H250.002C250.674 108.184 250.786 107.988 250.856 106.63C251.08 106.798 251.458 106.938 251.724 106.994C251.584 108.632 251.29 109.038 250.072 109.038ZM251.78 112.454V110.116H252.802V114.05H251.78V113.448H243.296V110.228H244.318V112.454H247.454V109.486H248.49V112.454H251.78ZM251.206 105.86L251.948 105.342C252.816 106.098 253.852 107.162 254.328 107.904L253.53 108.478C253.096 107.736 252.074 106.63 251.206 105.86ZM263.092 103.354L261.958 103.718C261.79 103.144 261.342 102.206 260.922 101.52L262 101.212C262.42 101.87 262.896 102.766 263.092 103.354ZM264.926 104.768H258.99C259.718 106.546 260.726 108.142 262.042 109.458C263.288 108.198 264.226 106.658 264.926 104.768ZM268.3 104.768H266.102C265.304 106.98 264.226 108.744 262.826 110.186C264.366 111.488 266.256 112.482 268.482 113.028C268.23 113.266 267.936 113.7 267.768 113.994C265.486 113.35 263.582 112.328 262.028 110.928C260.46 112.3 258.528 113.308 256.204 114.05C256.078 113.798 255.77 113.322 255.56 113.084C257.87 112.426 259.746 111.474 261.272 110.186C259.83 108.702 258.724 106.882 257.912 104.768H255.756V103.746H268.3V104.768ZM272.78 101.338L273.76 101.646C273.368 102.668 272.906 103.704 272.374 104.67V114.05H271.38V106.28C270.974 106.882 270.526 107.428 270.092 107.918C269.994 107.666 269.686 107.134 269.504 106.896C270.806 105.538 272.038 103.452 272.78 101.338ZM282.272 108.226V109.248H278.478V114.078H277.442V109.248H273.452V108.226H277.442V105.16H275.244C274.95 105.972 274.614 106.7 274.236 107.288C274.04 107.134 273.606 106.882 273.34 106.756C274.166 105.608 274.74 103.788 275.062 101.982L276.042 102.192C275.916 102.85 275.762 103.508 275.58 104.138H277.442V101.464H278.478V104.138H281.67V105.16H278.478V108.226H282.272ZM287.326 103.662L286.612 104.39C286.192 103.802 285.268 102.892 284.54 102.234L285.212 101.618C285.94 102.234 286.892 103.102 287.326 103.662ZM286.724 111.628L288.152 110.564C288.222 110.844 288.404 111.236 288.516 111.432C286.178 113.238 285.814 113.546 285.604 113.812C285.506 113.574 285.24 113.14 285.058 112.93C285.324 112.776 285.716 112.356 285.716 111.74V106.658H283.63V105.664H286.724V111.628ZM289.916 111.152H294.284V110.018H289.916V111.152ZM294.284 108.212H289.916V109.29H294.284V108.212ZM295.278 107.4V112.902C295.278 113.434 295.166 113.7 294.788 113.854C294.382 114.008 293.766 114.022 292.772 114.008C292.73 113.756 292.59 113.378 292.464 113.112C293.178 113.14 293.85 113.14 294.018 113.126C294.228 113.126 294.284 113.07 294.284 112.888V111.908H289.916V114.064H288.936V107.4H295.278ZM292.604 105.804H296.37V106.602H287.942V105.804H291.582V104.824H288.698V104.068H291.582V103.186H288.362V102.388H291.582V101.296H292.604V102.388H295.964V103.186H292.604V104.068H295.544V104.824H292.604V105.804ZM309.446 102.738L308.844 103.382C308.41 103.004 307.528 102.458 306.842 102.122L307.43 101.548C308.116 101.842 309.012 102.374 309.446 102.738ZM299.618 109.052L302.39 108.548C302.362 108.814 302.362 109.22 302.39 109.416C298.904 110.13 298.442 110.256 298.148 110.424C298.092 110.214 297.952 109.752 297.826 109.472C298.12 109.416 298.442 109.08 298.862 108.562C299.128 108.282 299.674 107.582 300.276 106.672C298.596 106.896 298.26 106.98 298.05 107.092C298.008 106.868 297.84 106.378 297.728 106.098C297.98 106.042 298.218 105.72 298.526 105.244C298.82 104.782 299.828 103.004 300.388 101.338L301.368 101.786C300.752 103.228 299.954 104.74 299.128 105.93L300.878 105.762C301.2 105.244 301.494 104.726 301.76 104.208L302.628 104.74C301.732 106.28 300.696 107.806 299.618 109.052ZM302.446 110.97L302.6 111.852L298.022 113.21L297.812 112.202C298.96 111.936 300.724 111.432 302.446 110.97ZM309.376 108.114L310.244 108.52C309.544 109.612 308.606 110.606 307.5 111.432C307.934 112.454 308.466 113.028 309.068 113.028C309.446 113.028 309.6 112.692 309.656 111.46C309.88 111.698 310.188 111.922 310.426 112.006C310.244 113.574 309.922 114.036 308.97 114.036C307.976 114.036 307.234 113.294 306.66 112.034C305.554 112.762 304.308 113.378 303.006 113.826C302.866 113.56 302.6 113.21 302.362 112.972C303.79 112.538 305.134 111.908 306.31 111.124C306.016 110.242 305.806 109.206 305.624 108.044L302.964 108.562L302.782 107.624L305.498 107.12C305.428 106.518 305.372 105.888 305.33 105.244L303.258 105.566L303.076 104.628L305.274 104.306C305.218 103.326 305.19 102.318 305.176 101.268H306.198C306.198 102.276 306.212 103.228 306.254 104.152L309.6 103.662L309.768 104.572L306.31 105.104C306.366 105.748 306.422 106.35 306.492 106.938L309.978 106.28L310.16 107.19L306.604 107.862C306.758 108.856 306.954 109.752 307.178 110.508C308.06 109.794 308.816 108.996 309.376 108.114ZM324.188 103.354H318.28V105.846L318.462 105.636C320.128 106.434 322.326 107.694 323.432 108.534L322.704 109.472C321.752 108.688 319.876 107.54 318.28 106.686V114.05H317.174V103.354H311.826V102.318H324.188V103.354ZM69.458 127.062V124.822H62.5V127.062H69.458ZM70.536 123.884V128H61.478V123.884H70.536ZM66.504 134.734H72.048V135.714H59.966V134.734H65.426V132.914H61.128V131.976H65.426V130.24H60.652V129.274H71.39V130.24H66.504V131.976H70.886V132.914H66.504V134.734ZM78.278 129.344L78.418 130.338L76.738 130.842V134.776C76.738 135.42 76.57 135.714 76.178 135.882C75.772 136.064 75.114 136.078 74.008 136.078C73.98 135.798 73.826 135.364 73.672 135.084C74.456 135.112 75.17 135.098 75.366 135.084C75.604 135.084 75.702 135.014 75.702 134.776V131.15C75.016 131.346 74.372 131.542 73.798 131.696L73.518 130.646C74.12 130.506 74.876 130.31 75.702 130.072V127.118H73.714V126.096H75.702V123.296H76.738V126.096H78.306V127.118H76.738V129.778L78.278 129.344ZM84.704 129.47H81.372C81.82 130.604 82.45 131.682 83.206 132.62C83.892 131.668 84.396 130.59 84.704 129.47ZM85.264 128.49L85.936 128.714C85.572 130.436 84.886 132.046 83.892 133.376C84.648 134.146 85.502 134.762 86.44 135.154C86.188 135.364 85.866 135.756 85.712 136.036C84.788 135.588 83.962 134.944 83.22 134.174C82.52 134.944 81.68 135.588 80.742 136.092C80.588 135.854 80.294 135.546 80.056 135.336C81.022 134.846 81.848 134.188 82.562 133.432C81.638 132.284 80.91 130.94 80.378 129.47H79.958V136.05H78.936V123.758H85.502C85.502 123.758 85.502 124.052 85.488 124.206C85.404 126.166 85.278 126.964 84.984 127.272C84.718 127.524 84.424 127.608 83.962 127.636C83.514 127.664 82.632 127.65 81.708 127.608C81.694 127.328 81.582 126.978 81.414 126.726C82.338 126.81 83.248 126.81 83.528 126.81C83.822 126.81 83.99 126.796 84.088 126.698C84.27 126.53 84.354 125.984 84.41 124.724H79.958V128.532H85.082L85.264 128.49ZM89.716 131.584C90.906 131.584 91.858 132.536 91.858 133.712C91.858 134.888 90.906 135.854 89.716 135.854C88.554 135.854 87.588 134.888 87.588 133.712C87.588 132.536 88.554 131.584 89.716 131.584ZM89.716 135.14C90.514 135.14 91.13 134.51 91.13 133.712C91.13 132.942 90.514 132.298 89.716 132.298C88.946 132.298 88.302 132.942 88.302 133.712C88.302 134.51 88.946 135.14 89.716 135.14Z" fill="#50302A"/>
<path d="M63.326 158.662L62.612 159.39C62.192 158.802 61.268 157.892 60.54 157.234L61.212 156.618C61.94 157.234 62.892 158.102 63.326 158.662ZM62.724 166.628L64.152 165.564C64.222 165.844 64.404 166.236 64.516 166.432C62.178 168.238 61.814 168.546 61.604 168.812C61.506 168.574 61.24 168.14 61.058 167.93C61.324 167.776 61.716 167.356 61.716 166.74V161.658H59.63V160.664H62.724V166.628ZM65.916 166.152H70.284V165.018H65.916V166.152ZM70.284 163.212H65.916V164.29H70.284V163.212ZM71.278 162.4V167.902C71.278 168.434 71.166 168.7 70.788 168.854C70.382 169.008 69.766 169.022 68.772 169.008C68.73 168.756 68.59 168.378 68.464 168.112C69.178 168.14 69.85 168.14 70.018 168.126C70.228 168.126 70.284 168.07 70.284 167.888V166.908H65.916V169.064H64.936V162.4H71.278ZM68.604 160.804H72.37V161.602H63.942V160.804H67.582V159.824H64.698V159.068H67.582V158.186H64.362V157.388H67.582V156.296H68.604V157.388H71.964V158.186H68.604V159.068H71.544V159.824H68.604V160.804ZM77.214 158.48H85.922C85.922 158.48 85.922 158.886 85.908 159.026C85.642 165.452 85.39 167.664 84.802 168.378C84.494 168.77 84.186 168.896 83.696 168.952C83.234 168.994 82.436 168.98 81.652 168.924C81.638 168.616 81.512 168.182 81.33 167.888C82.184 167.972 82.954 167.972 83.276 167.972C83.556 167.986 83.71 167.93 83.864 167.748C84.34 167.244 84.62 165.102 84.858 159.502H82.926C82.142 163.632 80.826 166.866 78.516 168.98C78.334 168.798 77.872 168.448 77.62 168.308C79.902 166.39 81.162 163.31 81.862 159.502H79.79C78.768 162.89 77.172 165.69 75.016 167.538C74.848 167.342 74.4 166.992 74.162 166.824C76.276 165.172 77.774 162.568 78.698 159.502H76.766C76.08 160.916 75.268 162.162 74.386 163.1C74.204 162.932 73.742 162.596 73.476 162.442C74.946 161 76.15 158.718 76.864 156.296L77.914 156.548C77.704 157.206 77.48 157.85 77.214 158.48ZM96.394 163.828V167.762H100.09V168.742H91.676V167.762H95.358V163.828H92.222V162.848H95.358V160.174H96.394V162.848H99.544V163.828H96.394ZM92.88 158.452H100.09V159.446H92.46C91.97 160.454 91.424 161.406 90.766 162.302V169.022H89.744V163.534C89.254 164.066 88.708 164.528 88.12 164.948C88.022 164.668 87.756 164.234 87.588 164.01C89.184 162.876 90.416 161.224 91.284 159.446H87.924V158.452H91.746C92.04 157.738 92.292 156.996 92.488 156.282L93.552 156.548C93.37 157.178 93.132 157.822 92.88 158.452ZM105.564 156.702L106.67 157.01C105.732 159.278 104.248 161.392 102.736 162.764C102.512 162.554 102.036 162.19 101.77 162.022C103.338 160.79 104.738 158.788 105.564 156.702ZM109.554 164.164L110.52 163.716C111.738 165.2 113.166 167.16 113.852 168.42L112.844 168.98C112.62 168.532 112.284 167.986 111.92 167.412C104.57 167.916 103.814 167.958 103.296 168.154C103.24 167.93 103.044 167.356 102.89 167.062C103.254 166.978 103.632 166.558 104.164 165.9C104.71 165.27 106.404 162.848 107.524 160.524L108.644 161.028C107.496 163.142 106.124 165.214 104.752 166.838L111.262 166.446C110.702 165.662 110.1 164.85 109.554 164.164ZM109.274 156.996L110.296 156.604C111.22 158.508 112.998 160.72 114.44 161.882C114.174 162.092 113.782 162.484 113.572 162.764C112.13 161.434 110.352 159.096 109.274 156.996ZM122.588 163.814H126.354V161.49H122.588V163.814ZM118.15 163.814H121.552V161.49H118.206V162.316C118.206 162.778 118.192 163.296 118.15 163.814ZM121.552 158.27H118.206V160.51H121.552V158.27ZM126.354 160.51V158.27H122.588V160.51H126.354ZM127.376 157.276V167.664C127.376 168.336 127.194 168.644 126.746 168.826C126.27 168.994 125.458 169.008 124.142 168.994C124.1 168.714 123.932 168.266 123.792 167.986C124.772 168.028 125.724 168.014 125.976 168.014C126.256 168 126.354 167.916 126.354 167.65V164.808H122.588V168.938H121.552V164.808H118.052C117.842 166.362 117.366 167.958 116.302 169.148C116.148 168.938 115.728 168.588 115.504 168.462C117.044 166.726 117.184 164.262 117.184 162.316V157.276H127.376ZM136.854 157.766V158.354C136.854 159.656 136.406 161.168 134.404 162.134C134.278 161.924 133.928 161.518 133.732 161.364C135.566 160.524 135.874 159.362 135.874 158.326V156.786H140.298V160.034C140.298 160.426 140.34 160.552 140.55 160.552H141.516C141.712 160.552 142.006 160.524 142.174 160.482C142.188 160.748 142.23 161.14 142.272 161.378C142.09 161.434 141.81 161.448 141.53 161.448H140.48C139.528 161.448 139.318 161.042 139.318 160.006V157.766H136.854ZM133.564 158.62L132.864 159.362C132.416 158.774 131.492 157.836 130.736 157.178L131.408 156.548C132.164 157.164 133.116 158.06 133.564 158.62ZM132.626 166.656L134.166 165.55C134.25 165.816 134.418 166.208 134.544 166.404C132.08 168.224 131.702 168.532 131.478 168.784C131.38 168.546 131.114 168.112 130.918 167.916C131.184 167.748 131.618 167.286 131.618 166.656V161.658H129.658V160.664H132.626V166.656ZM140.256 163.408H135.888C136.392 164.472 137.148 165.41 138.072 166.18C138.996 165.438 139.752 164.514 140.256 163.408ZM140.928 162.386L141.572 162.68C141.026 164.416 140.074 165.76 138.884 166.768C139.892 167.426 141.096 167.902 142.44 168.196C142.202 168.42 141.936 168.826 141.796 169.12C140.368 168.77 139.094 168.196 138.044 167.412C136.924 168.182 135.636 168.714 134.306 169.092C134.222 168.812 133.984 168.406 133.788 168.168C135.02 167.888 136.21 167.426 137.246 166.768C136.266 165.858 135.482 164.752 134.908 163.478L135.104 163.408H134.39V162.428H140.746L140.928 162.386ZM149.454 163.912H146.486V165.312H149.454V163.912ZM153.43 165.312V163.912H150.504V165.312H153.43ZM150.504 167.706H153.43V166.166H150.504V167.706ZM146.486 167.706H149.454V166.166H146.486V167.706ZM145.436 169.064V162.988H154.522V169.036H153.43V168.616H146.486V169.064H145.436ZM147.76 158.41L147.62 158.55C148.222 159.208 149.034 159.768 149.986 160.244C150.994 159.726 151.904 159.11 152.576 158.41H147.76ZM153.598 157.43L154.27 157.864C153.528 159.012 152.394 159.978 151.078 160.734C152.688 161.378 154.578 161.812 156.552 162.022C156.328 162.26 156.062 162.694 155.922 162.988C153.78 162.694 151.722 162.148 149.986 161.336C148.11 162.246 145.954 162.848 143.952 163.184C143.854 162.89 143.658 162.428 143.49 162.19C145.282 161.952 147.2 161.462 148.908 160.748C148.138 160.3 147.466 159.782 146.892 159.194C146.29 159.684 145.618 160.132 144.834 160.552C144.68 160.3 144.372 159.964 144.134 159.796C146.136 158.844 147.494 157.458 148.18 156.254L149.286 156.464C149.09 156.814 148.852 157.15 148.572 157.486H153.416L153.598 157.43ZM160.892 156.324L161.872 156.618C161.466 157.626 160.99 158.62 160.444 159.53V169.036H159.45V161.056C158.974 161.728 158.456 162.33 157.952 162.848C157.84 162.624 157.546 162.078 157.364 161.84C158.75 160.51 160.094 158.438 160.892 156.324ZM163.314 157.878V160.44H168.508V157.878H163.314ZM170.314 164.052H166.996C167.92 165.522 169.334 166.936 170.678 167.664C170.454 167.846 170.118 168.224 169.936 168.49C168.676 167.678 167.332 166.222 166.394 164.696V169.078H165.358V164.738C164.378 166.278 162.978 167.678 161.62 168.462C161.438 168.21 161.13 167.832 160.892 167.636C162.334 166.922 163.818 165.536 164.756 164.052H161.298V163.1H165.358V161.364H162.334V156.94H169.544V161.364H166.394V163.1H170.314V164.052ZM184.09 159.11H176.516C176.026 160.23 175.424 161.294 174.71 162.274V169.05H173.688V163.492C173.184 164.024 172.638 164.528 172.022 164.948C171.91 164.696 171.658 164.248 171.49 164.01C173.198 162.82 174.472 161.042 175.382 159.11H171.938V158.102H175.802C176.04 157.5 176.25 156.884 176.418 156.282L177.482 156.534C177.314 157.066 177.146 157.584 176.936 158.102H184.09V159.11ZM184.356 164.262V165.242H180.618V167.832C180.618 168.448 180.492 168.742 180.03 168.91C179.568 169.064 178.798 169.064 177.608 169.064C177.552 168.77 177.412 168.378 177.272 168.07C178.196 168.112 179.036 168.112 179.274 168.084C179.526 168.07 179.582 168.014 179.582 167.818V165.242H175.718V164.262H179.582V163.114C180.268 162.75 181.024 162.176 181.64 161.63H176.894V160.678H182.592L182.802 160.608L183.474 161.14C182.718 161.966 181.64 162.82 180.618 163.45V164.262H184.356ZM194.114 165.774L195.094 166.04C194.8 166.642 194.45 167.3 194.156 167.832H198.132V168.742H185.882V167.832H189.718C189.592 167.356 189.27 166.628 188.934 166.096L189.872 165.802C190.222 166.334 190.586 167.048 190.726 167.538L189.858 167.832H193.092C193.456 167.244 193.89 166.39 194.114 165.774ZM194.786 164.822V163.072H188.976V164.822H194.786ZM195.878 162.204V165.69H187.954V162.204H195.878ZM197.264 158.06L198.048 158.592C197.418 159.18 196.606 159.81 195.92 160.286C196.718 160.972 197.614 161.532 198.552 161.91C198.314 162.092 198.02 162.498 197.838 162.764C196.62 162.218 195.5 161.378 194.52 160.356V161.07H189.508V160.412C188.472 161.476 187.254 162.33 186.064 162.89C185.924 162.652 185.63 162.302 185.42 162.106C186.372 161.714 187.38 161.056 188.248 160.258C187.814 159.782 187.1 159.236 186.47 158.844L187.03 158.256C187.674 158.634 188.416 159.18 188.864 159.656C189.41 159.04 189.914 158.382 190.264 157.696H186.456V156.814H190.754L190.95 156.772L191.636 157.122C191.202 158.27 190.53 159.292 189.732 160.174H194.352C193.386 159.124 192.602 157.92 192.028 156.604L192.938 156.324C193.19 156.912 193.526 157.5 193.904 158.06C194.534 157.556 195.262 156.898 195.71 156.408L196.508 156.968C195.864 157.57 195.066 158.214 194.38 158.69C194.66 159.054 194.982 159.418 195.318 159.754C196.004 159.236 196.788 158.564 197.264 158.06ZM210.312 162.82L211.194 163.464C210.368 164.178 209.304 164.962 208.422 165.508C209.472 166.474 210.788 167.216 212.3 167.622C212.062 167.832 211.768 168.238 211.614 168.532C209.444 167.832 207.708 166.474 206.504 164.654V167.944C206.504 168.546 206.364 168.798 205.93 168.952C205.496 169.106 204.796 169.106 203.718 169.106C203.662 168.826 203.494 168.448 203.354 168.182C204.18 168.224 204.95 168.224 205.16 168.21C205.398 168.196 205.468 168.126 205.468 167.93V165.998C203.746 166.768 201.926 167.552 200.554 168.126L200.008 167.202C201.352 166.698 203.452 165.844 205.468 165.018V162.47H199.98V161.546H209.15C209.178 161.14 209.206 160.706 209.234 160.272H201.338V159.32H209.29C209.304 158.872 209.332 158.41 209.346 158.032H200.932V157.066H209.472L209.668 157.024L210.48 157.08C210.452 158.396 210.34 160.118 210.214 161.546H212.118V162.47H206.504V162.876C206.84 163.59 207.274 164.262 207.792 164.864C208.66 164.262 209.682 163.45 210.312 162.82ZM200.932 163.534L201.618 162.918C202.5 163.394 203.634 164.136 204.194 164.668L203.466 165.382C202.934 164.85 201.814 164.066 200.932 163.534ZM222.492 158.102L221.554 158.508C221.372 158.018 220.938 157.22 220.588 156.646L221.47 156.282C221.876 156.87 222.296 157.612 222.492 158.102ZM216.626 156.338L217.55 156.618C217.228 157.556 216.822 158.494 216.374 159.376V169.12H215.408V161.056C214.988 161.728 214.526 162.33 214.078 162.862C213.98 162.638 213.686 162.134 213.504 161.896C214.764 160.538 215.912 158.452 216.626 156.338ZM224.34 165.452H219.09V167.664H224.34V165.452ZM218.18 169.078V164.584H225.264V169.036H224.34V168.532H219.09V169.078H218.18ZM218.376 163.408V162.554H225.124V163.408H218.376ZM225.124 160.594V161.448H218.376V160.594H225.124ZM217.368 158.592H226.23V159.474H217.368V158.592ZM230.752 162.246V163.366H237.206V162.246H230.752ZM230.752 160.328V161.448H237.206V160.328H230.752ZM230.752 158.41V159.53H237.206V158.41H230.752ZM232.88 164.626L233.622 164.206H229.744V157.584H232.992C233.202 157.136 233.412 156.548 233.524 156.142L234.728 156.352C234.532 156.786 234.294 157.234 234.07 157.584H238.242V164.206H233.706C234.42 164.822 235.218 165.718 235.582 166.306L234.742 166.824C234.392 166.208 233.594 165.284 232.88 164.626ZM228.638 168.406L227.686 167.958C228.232 167.188 228.778 165.998 229.1 165.13L230.01 165.522C229.632 166.376 229.142 167.608 228.638 168.406ZM232.796 167.86H235.862C236.604 167.86 236.73 167.65 236.8 166.236C237.038 166.418 237.472 166.572 237.766 166.628C237.626 168.406 237.29 168.826 235.932 168.826H232.74C231.116 168.826 230.696 168.532 230.696 167.426V165.144H231.732V167.412C231.732 167.79 231.886 167.86 232.796 167.86ZM237.654 165.298L238.578 164.906C239.236 165.746 239.922 166.908 240.174 167.678L239.208 168.126C238.97 167.356 238.298 166.166 237.654 165.298ZM243.198 169.498L242.89 168.756C243.968 168.308 244.584 167.65 244.654 166.698C244.57 166.712 244.5 166.712 244.416 166.712C243.842 166.712 243.366 166.376 243.366 165.718C243.366 165.06 243.856 164.71 244.43 164.71C245.2 164.71 245.62 165.34 245.62 166.32C245.62 167.832 244.668 168.98 243.198 169.498ZM268.216 158.088V158.956H263.498V158.088H265.486C265.318 157.612 265.094 157.038 264.856 156.576L265.682 156.338C265.976 156.87 266.284 157.57 266.438 158.088H268.216ZM265.388 161L264.604 161.196C264.548 160.692 264.338 159.922 264.114 159.334L264.856 159.166C265.094 159.726 265.318 160.496 265.388 161ZM265.374 163.716V162.204H263.372V161.336H266.004C266.326 160.678 266.676 159.754 266.858 159.124L267.74 159.32C267.446 159.978 267.138 160.748 266.83 161.336H268.314V162.204H266.326V163.716H268.146V164.584H266.326V167.09H265.374V164.584H263.54V163.716H265.374ZM262.056 157.766H260.432V159.334C260.432 159.53 260.432 159.726 260.418 159.95H262.056V157.766ZM260.852 162.988V165.522H262.322V162.988H260.852ZM260.082 166.334V163.1C259.858 164.108 259.536 165.088 259.032 165.914C258.892 165.732 258.528 165.382 258.318 165.284C259.396 163.478 259.536 161.042 259.536 159.32V156.94H262.966V160.776H260.39C260.348 161.224 260.306 161.714 260.236 162.19H263.12V166.334H260.082ZM258.57 159.25L257.716 159.796C257.38 159.11 256.568 158.046 255.854 157.276L256.68 156.814C257.394 157.556 258.22 158.564 258.57 159.25ZM258.276 161.644V166.138C258.612 166.278 258.962 166.586 259.564 166.936C260.488 167.468 261.72 167.566 263.302 167.566C264.982 167.566 267.068 167.454 268.412 167.3C268.286 167.58 268.132 168.07 268.104 168.392C267.166 168.462 264.604 168.546 263.274 168.546C261.538 168.546 260.32 168.392 259.298 167.804C258.696 167.454 258.234 167.006 257.912 167.006C257.492 167.006 256.876 167.818 256.26 168.714L255.588 167.762C256.19 167.062 256.792 166.502 257.324 166.236V162.61H255.714V161.644H258.276ZM280.158 160.734H276.616C276.546 161.588 276.448 162.4 276.294 163.17H280.158V160.734ZM272.22 163.17H275.202C275.384 162.4 275.468 161.602 275.538 160.734H272.22V163.17ZM277.106 158.242H273.606C273.2 158.774 272.738 159.292 272.234 159.796H275.944C276.35 159.362 276.784 158.774 277.106 158.242ZM278.478 167.846H280.62C281.222 167.846 281.32 167.58 281.376 165.9C281.614 166.082 282.034 166.25 282.342 166.306C282.202 168.294 281.894 168.784 280.704 168.784H278.366C277.022 168.784 276.672 168.476 276.672 167.37V164.108H276.042C275.356 166.292 273.872 167.986 270.358 168.938C270.26 168.672 270.008 168.28 269.77 168.056C272.906 167.286 274.278 165.886 274.922 164.108H271.184V160.762C270.918 160.986 270.652 161.182 270.358 161.392C270.204 161.14 269.868 160.804 269.63 160.636C271.52 159.376 272.92 157.654 273.662 156.268L274.81 156.478C274.642 156.772 274.446 157.052 274.236 157.36H277.694L277.876 157.304L278.576 157.78C278.212 158.438 277.666 159.18 277.148 159.796H281.236V164.108H277.736V167.356C277.736 167.776 277.848 167.846 278.478 167.846ZM293.43 157.458L294.102 157.878C292.338 160.972 288.264 162.848 284.638 163.604C284.554 163.324 284.33 162.89 284.148 162.666C285.702 162.386 287.354 161.882 288.838 161.168C288.376 160.748 287.76 160.3 287.2 159.978L287.956 159.446C288.544 159.782 289.244 160.258 289.748 160.706C290.854 160.062 291.82 159.306 292.506 158.438H288.558C287.662 159.18 286.57 159.866 285.31 160.44C285.156 160.202 284.834 159.88 284.61 159.712C286.836 158.774 288.502 157.416 289.398 156.268L290.532 156.506C290.266 156.842 289.958 157.164 289.622 157.5H293.248L293.43 157.458ZM295.474 162.344L296.174 162.778C294.228 166.894 289.454 168.518 284.526 169.106C284.456 168.812 284.288 168.35 284.106 168.098C286.472 167.874 288.824 167.384 290.784 166.474C290.322 166.026 289.692 165.494 289.146 165.074L290 164.584C290.56 164.99 291.232 165.536 291.736 165.998C292.926 165.312 293.92 164.444 294.62 163.352H290.84C289.678 164.29 288.236 165.144 286.486 165.83C286.36 165.606 286.066 165.228 285.828 165.06C288.656 164.038 290.644 162.484 291.666 161.112L292.814 161.364C292.534 161.714 292.24 162.064 291.89 162.4H295.264L295.474 162.344ZM303.412 156.338H304.56C304.546 156.842 304.532 157.542 304.462 158.368C304.672 160.034 305.512 165.886 310.454 168.084C310.16 168.322 309.852 168.672 309.698 168.966C306.198 167.328 304.7 163.87 304.028 161.266C303.384 164.066 301.9 167.202 298.484 169.022C298.302 168.742 297.966 168.434 297.644 168.21C303.454 165.27 303.37 158.466 303.412 156.338ZM314.906 156.254L315.886 156.562C315.494 157.542 314.99 158.536 314.444 159.474V169.134H313.45V160.972C312.96 161.658 312.428 162.274 311.91 162.792C311.812 162.554 311.518 162.022 311.322 161.784C312.736 160.454 314.094 158.368 314.906 156.254ZM316.88 163.114H319.358C319.372 162.904 319.372 162.694 319.372 162.484V161.042H316.88V163.114ZM322.97 161.042H320.394V162.484C320.394 162.694 320.394 162.904 320.38 163.114H322.97V161.042ZM323.964 163.996H320.324C320.212 164.962 319.96 165.872 319.4 166.684C320.8 167.454 322.564 167.93 324.552 168.168C324.328 168.392 324.076 168.798 323.936 169.106C321.962 168.812 320.212 168.266 318.784 167.412C318.084 168.098 317.076 168.686 315.62 169.12C315.508 168.896 315.214 168.462 314.99 168.266C316.362 167.916 317.3 167.426 317.944 166.852C317.118 166.222 316.432 165.466 315.914 164.57L316.782 164.29C317.202 165.018 317.804 165.634 318.546 166.152C318.994 165.494 319.204 164.766 319.302 163.996H315.914V160.16H319.372V158.788H315.508V157.836H319.372V156.338H320.394V157.836H324.426V158.788H320.394V160.16H323.964V163.996ZM332.588 163.814H336.354V161.49H332.588V163.814ZM328.15 163.814H331.552V161.49H328.206V162.316C328.206 162.778 328.192 163.296 328.15 163.814ZM331.552 158.27H328.206V160.51H331.552V158.27ZM336.354 160.51V158.27H332.588V160.51H336.354ZM337.376 157.276V167.664C337.376 168.336 337.194 168.644 336.746 168.826C336.27 168.994 335.458 169.008 334.142 168.994C334.1 168.714 333.932 168.266 333.792 167.986C334.772 168.028 335.724 168.014 335.976 168.014C336.256 168 336.354 167.916 336.354 167.65V164.808H332.588V168.938H331.552V164.808H328.052C327.842 166.362 327.366 167.958 326.302 169.148C326.148 168.938 325.728 168.588 325.504 168.462C327.044 166.726 327.184 164.262 327.184 162.316V157.276H337.376ZM67.834 184.708H64.166V187.354H67.834V184.708ZM68.814 188.25H64.166V189.258H63.2V183.826H68.814V188.25ZM69.556 181.46V182.37H62.5V181.46H69.556ZM71.754 179.01V189.762C71.754 190.406 71.6 190.714 71.18 190.896C70.746 191.064 70.046 191.092 68.842 191.092C68.8 190.798 68.632 190.35 68.464 190.07C69.346 190.098 70.158 190.098 70.396 190.084C70.648 190.07 70.732 189.986 70.732 189.762V180.004H61.282V191.106H60.274V179.01H71.754ZM73.672 183.98H86.384V185.114H73.672V183.98ZM98.746 178.898L99.712 179.206C98.914 180.774 97.626 182.286 96.394 183.266C96.226 183.07 95.862 182.692 95.638 182.51C96.87 181.642 98.046 180.298 98.746 178.898ZM89.044 179.808V187.508H88.246V178.94H92.586V187.466H91.76V179.808H89.044ZM90.85 180.718V184.68C90.85 186.724 90.584 189.398 88.134 191.008C88.008 190.826 87.77 190.518 87.574 190.378C89.87 188.978 90.024 186.458 90.024 184.68V180.718H90.85ZM90.514 188.152L91.158 187.69C91.802 188.432 92.572 189.454 92.936 190.084L92.222 190.63C91.9 189.972 91.158 188.922 90.514 188.152ZM100.202 184.666H97.276C97.836 186.948 98.928 188.978 100.468 189.972C100.244 190.14 99.936 190.504 99.768 190.77C98.088 189.552 96.926 187.298 96.31 184.666H95.162V189.524L97.22 188.782C97.22 189.076 97.262 189.482 97.318 189.706C94.63 190.784 94.224 190.966 94 191.162C93.93 190.91 93.748 190.504 93.58 190.308C93.818 190.196 94.196 189.93 94.196 189.384V184.666H92.936V183.7H94.196V178.576H95.162V183.7H100.202V184.666ZM111.29 181.67V179.794H104.654V181.67H111.29ZM112.368 178.856V182.594H103.632V178.856H112.368ZM114.02 184.806H105.942C105.788 185.324 105.606 185.856 105.438 186.346H112.368C112.368 186.346 112.354 186.682 112.312 186.836C111.99 189.16 111.64 190.21 111.122 190.644C110.814 190.938 110.464 191.022 109.932 191.05C109.47 191.064 108.532 191.05 107.58 190.994C107.552 190.686 107.412 190.28 107.216 190C108.21 190.098 109.204 190.112 109.61 190.112C109.932 190.112 110.114 190.098 110.268 189.972C110.618 189.706 110.898 188.936 111.15 187.312H104.514V187.298H103.884C104.178 186.626 104.514 185.66 104.808 184.806H101.924V183.854H114.02V184.806ZM117.716 186.584C118.906 186.584 119.858 187.536 119.858 188.712C119.858 189.888 118.906 190.854 117.716 190.854C116.554 190.854 115.588 189.888 115.588 188.712C115.588 187.536 116.554 186.584 117.716 186.584ZM117.716 190.14C118.514 190.14 119.13 189.51 119.13 188.712C119.13 187.942 118.514 187.298 117.716 187.298C116.946 187.298 116.302 187.942 116.302 188.712C116.302 189.51 116.946 190.14 117.716 190.14Z" fill="#50302A"/>
<path d="M66.826 237.1L67.526 236.582C68.016 236.932 68.534 237.31 69.038 237.716C69.78 237.226 70.648 236.582 71.194 236.106L72.006 236.708C71.292 237.24 70.452 237.814 69.696 238.262C70.508 238.934 71.25 239.606 71.712 240.166L70.942 240.768C70.116 239.732 68.31 238.178 66.826 237.1ZM69.892 231.78H65.524V233.096H69.892V231.78ZM65.524 235.266H69.892V233.894H65.524V235.266ZM65.524 239.41L67.946 238.78C67.946 239.046 67.974 239.452 68.002 239.648C65.09 240.474 64.67 240.614 64.39 240.81C64.306 240.558 64.082 240.152 63.928 239.956C64.166 239.816 64.488 239.55 64.488 238.962V230.912H70.9V236.134H65.524V239.41ZM63.046 233.068L62.206 233.698C61.828 233.054 60.932 232.102 60.176 231.388L60.96 230.842C61.716 231.5 62.626 232.438 63.046 233.068ZM62.654 235.238V240.474C62.962 240.614 63.27 240.88 63.802 241.174C64.712 241.664 65.888 241.762 67.414 241.762C69.038 241.762 71.11 241.664 72.454 241.51C72.342 241.776 72.174 242.252 72.16 242.546C71.166 242.616 68.716 242.7 67.386 242.7C65.734 242.7 64.544 242.546 63.592 242C62.99 241.664 62.556 241.258 62.234 241.258C61.73 241.258 61.016 241.986 60.26 242.854L59.616 241.986C60.33 241.3 61.044 240.74 61.66 240.502V236.218H59.784V235.238H62.654ZM84.368 237.24H85.488V243.05H84.368V242.252H74.512V237.24H75.632V241.23H79.412V236.358H75.128V231.57H76.206V235.336H79.412V230.296H80.532V235.336H83.822V231.556H84.942V236.358H80.532V241.23H84.368V237.24ZM91.55 232.396H89.17V235.448H91.55V232.396ZM89.17 239.55H91.55V236.386H89.17V239.55ZM92.53 231.458V240.502H89.17V241.608H88.19V231.458H92.53ZM100.412 233.082V234.104H98.718V241.524C98.718 242.266 98.508 242.588 98.018 242.742C97.528 242.924 96.646 242.938 95.246 242.924C95.19 242.644 95.036 242.168 94.868 241.888C95.946 241.916 96.982 241.916 97.29 241.902C97.57 241.888 97.682 241.804 97.682 241.524V234.104H93.16V233.082H97.682V230.366H98.718V233.082H100.412ZM96.674 238.556L95.764 239.088C95.316 238.234 94.378 236.75 93.636 235.672L94.49 235.224C95.232 236.288 96.212 237.716 96.674 238.556ZM105.326 232.662L104.612 233.39C104.192 232.802 103.268 231.892 102.54 231.234L103.212 230.618C103.94 231.234 104.892 232.102 105.326 232.662ZM104.724 240.628L106.152 239.564C106.222 239.844 106.404 240.236 106.516 240.432C104.178 242.238 103.814 242.546 103.604 242.812C103.506 242.574 103.24 242.14 103.058 241.93C103.324 241.776 103.716 241.356 103.716 240.74V235.658H101.63V234.664H104.724V240.628ZM107.916 240.152H112.284V239.018H107.916V240.152ZM112.284 237.212H107.916V238.29H112.284V237.212ZM113.278 236.4V241.902C113.278 242.434 113.166 242.7 112.788 242.854C112.382 243.008 111.766 243.022 110.772 243.008C110.73 242.756 110.59 242.378 110.464 242.112C111.178 242.14 111.85 242.14 112.018 242.126C112.228 242.126 112.284 242.07 112.284 241.888V240.908H107.916V243.064H106.936V236.4H113.278ZM110.604 234.804H114.37V235.602H105.942V234.804H109.582V233.824H106.698V233.068H109.582V232.186H106.362V231.388H109.582V230.296H110.604V231.388H113.964V232.186H110.604V233.068H113.544V233.824H110.604V234.804ZM119.83 232.074V232.802C120.558 235.672 121.762 238.01 123.666 239.676C124.87 238.584 125.808 237.17 126.368 235.406H122.756C123.036 234.524 123.358 233.236 123.61 232.074H119.83ZM126.998 234.356L127.684 234.65C127.082 237.114 125.976 238.962 124.52 240.32C125.612 241.076 126.914 241.65 128.426 242C128.202 242.238 127.894 242.672 127.74 242.966C126.13 242.546 124.786 241.902 123.652 241.048C122.42 241.958 121.006 242.602 119.508 243.05C119.382 242.77 119.102 242.35 118.906 242.126C120.306 241.79 121.65 241.202 122.84 240.362C121.482 239.088 120.474 237.464 119.732 235.518C119.508 237.898 118.724 240.586 116.316 242.868C116.162 242.602 115.784 242.182 115.56 242C118.528 239.214 118.766 235.728 118.766 233.236V232.074H116.316V231.038H124.898C124.674 232.102 124.366 233.362 124.114 234.412H126.802L126.998 234.356ZM133.55 232.396H131.17V235.448H133.55V232.396ZM131.17 239.55H133.55V236.386H131.17V239.55ZM134.53 231.458V240.502H131.17V241.608H130.19V231.458H134.53ZM142.412 233.082V234.104H140.718V241.524C140.718 242.266 140.508 242.588 140.018 242.742C139.528 242.924 138.646 242.938 137.246 242.924C137.19 242.644 137.036 242.168 136.868 241.888C137.946 241.916 138.982 241.916 139.29 241.902C139.57 241.888 139.682 241.804 139.682 241.524V234.104H135.16V233.082H139.682V230.366H140.718V233.082H142.412ZM138.674 238.556L137.764 239.088C137.316 238.234 136.378 236.75 135.636 235.672L136.49 235.224C137.232 236.288 138.212 237.716 138.674 238.556ZM152.814 232.494L151.82 232.886C151.624 232.284 151.134 231.29 150.672 230.562L151.61 230.226C152.086 230.94 152.618 231.892 152.814 232.494ZM147.592 231.906L146.99 232.76C146.416 232.312 145.268 231.64 144.372 231.206L144.946 230.45C145.814 230.842 146.99 231.472 147.592 231.906ZM146.794 235.686L146.206 236.568C145.646 236.12 144.512 235.476 143.63 235.042L144.19 234.272C145.058 234.664 146.206 235.28 146.794 235.686ZM146.696 237.73L147.452 238.416C146.71 239.886 145.73 241.622 144.918 242.924L144.05 242.21C144.806 241.16 145.884 239.312 146.696 237.73ZM152.422 241.65H156.398V242.644H147.256V241.65H151.344V238.052H148.236V237.058H151.344V233.936H147.676V232.942H156.076V233.936H152.422V237.058H155.572V238.052H152.422V241.65ZM169.39 230.688L170.286 231.094C169.81 231.99 169.208 233.04 168.704 233.698L167.934 233.334C168.41 232.648 169.054 231.5 169.39 230.688ZM162.754 232.956H159.338C158.96 233.586 158.54 234.132 158.106 234.594C158.022 234.384 157.742 233.88 157.574 233.656C158.4 232.844 159.114 231.612 159.534 230.324L160.43 230.59C160.29 231.052 160.094 231.514 159.87 231.962H162.754V232.956ZM160.878 235.294V237.184H162.824V238.136H160.878V241.076L162.46 240.25C162.488 240.516 162.586 240.922 162.67 241.132C160.346 242.434 159.968 242.658 159.744 242.896C159.66 242.644 159.436 242.238 159.254 242.028C159.506 241.874 159.912 241.496 159.912 240.894V238.136H157.924V237.184H159.912V235.294H158.526V234.356H162.516V235.294H160.878ZM165.33 233.292L164.476 233.74C164.266 233.068 163.692 231.976 163.132 231.164L163.944 230.786C164.504 231.57 165.106 232.606 165.33 233.292ZM164.28 239.13H168.942V237.632H164.28V239.13ZM168.942 235.238H164.28V236.722H168.942V235.238ZM168.942 234.244H169.88V241.762C169.88 242.308 169.768 242.602 169.39 242.77C168.984 242.938 168.368 242.952 167.304 242.952C167.262 242.686 167.136 242.266 166.982 242C167.766 242.028 168.466 242.028 168.662 242.014C168.872 242 168.942 241.944 168.942 241.748V240.026H164.28V243.078H163.328V234.258H166.184V230.268H167.15V234.258L168.942 234.244ZM173.198 243.498L172.89 242.756C173.968 242.308 174.584 241.65 174.654 240.698C174.57 240.712 174.5 240.712 174.416 240.712C173.842 240.712 173.366 240.376 173.366 239.718C173.366 239.06 173.856 238.71 174.43 238.71C175.2 238.71 175.62 239.34 175.62 240.32C175.62 241.832 174.668 242.98 173.198 243.498ZM187.212 232.858V234.902H186.19V231.864H191.622C191.454 231.43 191.202 230.898 190.978 230.492L191.986 230.198C192.294 230.716 192.644 231.402 192.812 231.864H197.796V234.902H196.746V232.858H187.212ZM192.518 238.836V241.636C193.218 241.776 193.988 241.818 194.814 241.818C195.318 241.818 197.712 241.818 198.384 241.79C198.216 242.056 198.048 242.532 197.992 242.84H194.758C191.846 242.84 189.76 242.336 188.486 239.956C188.01 241.258 187.324 242.322 186.4 243.12C186.232 242.924 185.812 242.56 185.56 242.406C187.114 241.216 187.87 239.228 188.178 236.708L189.214 236.82C189.13 237.464 189.018 238.066 188.892 238.626C189.424 240.11 190.32 240.922 191.454 241.356V235.574H187.982V234.58H196.088V235.574H192.518V237.856H196.662V238.836H192.518ZM201.898 237.352V238.752H204.432V237.352H201.898ZM204.432 233.068H201.898V234.3H204.432V233.068ZM201.898 235.14V236.512H204.432V235.14H201.898ZM206.42 238.752V239.69H199.588V238.752H200.946V233.068H199.77V232.13H200.946V230.436H201.898V232.13H204.432V230.436H205.398V232.13H206.42V233.068H205.398V238.752H206.42ZM201.52 239.984L202.514 240.25C202.01 241.328 201.212 242.392 200.442 243.078C200.246 242.91 199.854 242.616 199.602 242.476C200.372 241.846 201.1 240.908 201.52 239.984ZM203.508 240.418L204.32 239.984C204.88 240.614 205.524 241.482 205.79 242.056L204.95 242.546C204.698 241.986 204.068 241.076 203.508 240.418ZM208.058 237.422H210.942V235.098H208.086V236.036C208.086 236.47 208.072 236.946 208.058 237.422ZM210.942 231.934H208.086V234.16H210.942V231.934ZM211.95 230.982V241.734C211.95 242.35 211.796 242.658 211.418 242.826C211.012 242.994 210.368 243.022 209.332 243.022C209.29 242.728 209.15 242.28 209.01 242.014C209.752 242.028 210.452 242.028 210.648 242.014C210.858 242.014 210.942 241.944 210.942 241.72V238.36H207.988C207.848 240.026 207.498 241.804 206.658 243.148C206.49 242.952 206.07 242.63 205.832 242.532C206.994 240.684 207.106 238.038 207.106 236.036V230.982H211.95ZM216.332 230.366L217.284 230.646C216.976 231.584 216.598 232.522 216.178 233.418V243.078H215.17V235.294C214.764 235.966 214.33 236.568 213.882 237.114C213.784 236.876 213.504 236.316 213.336 236.05C214.54 234.664 215.66 232.536 216.332 230.366ZM217.298 240.88V234.174H218.194V240.88H217.298ZM224.648 232.676H220.742C221.162 233.362 221.82 234.048 222.66 234.636C223.472 234.104 224.158 233.446 224.648 232.676ZM225.348 231.766L225.95 232.074C225.404 233.348 224.55 234.356 223.472 235.112C224.34 235.588 225.376 235.952 226.552 236.19C226.356 236.386 226.09 236.778 225.978 237.03C224.676 236.722 223.556 236.246 222.646 235.672C221.456 236.358 220.098 236.806 218.712 237.114C218.614 236.876 218.404 236.498 218.222 236.316C219.496 236.078 220.756 235.686 221.862 235.098C221.176 234.566 220.63 233.978 220.224 233.39C219.846 233.908 219.412 234.384 218.992 234.776C218.824 234.608 218.432 234.3 218.194 234.16C219.314 233.222 220.336 231.78 220.91 230.282L221.862 230.52C221.68 230.954 221.47 231.402 221.246 231.808H225.18L225.348 231.766ZM224.074 237.982L224.872 238.318C223.808 239.466 221.96 240.348 220.084 240.838C219.958 240.628 219.748 240.348 219.538 240.166C221.302 239.76 223.15 238.976 224.074 237.982ZM222.744 236.596L223.542 236.932C222.688 237.814 221.274 238.528 219.944 238.976C219.804 238.78 219.566 238.514 219.356 238.36C220.602 237.982 222.002 237.338 222.744 236.596ZM225.39 239.48L226.272 239.872C224.886 241.524 222.282 242.518 219.328 243.036C219.216 242.784 218.992 242.434 218.782 242.196C221.596 241.804 224.13 240.908 225.39 239.48ZM235.414 233.838L235.358 233.978C235.68 235.644 236.17 237.17 236.856 238.472C237.528 237.212 237.976 235.672 238.256 233.838H235.414ZM240.258 233.838H239.348C238.97 236.134 238.382 237.996 237.486 239.508C238.256 240.67 239.25 241.58 240.482 242.14C240.23 242.336 239.936 242.742 239.768 243.008C238.592 242.406 237.626 241.524 236.842 240.418C235.988 241.538 234.868 242.434 233.44 243.134C233.342 242.882 233.02 242.406 232.824 242.182C234.294 241.51 235.414 240.628 236.24 239.452C235.596 238.29 235.12 236.932 234.742 235.434C234.434 236.05 234.084 236.61 233.734 237.114C233.566 236.918 233.174 236.526 232.936 236.358L233.006 236.274H229.338V240.684L233.02 239.354C233.02 239.662 233.09 240.096 233.16 240.334C229.114 241.888 228.596 242.126 228.288 242.406C228.218 242.098 228.036 241.594 227.868 241.342C228.078 241.244 228.302 241.048 228.302 240.558V235.252H232.012V232.298H228.134V231.276H233.034V236.232C234.126 234.79 234.882 232.578 235.344 230.282L236.352 230.478C236.184 231.304 235.988 232.102 235.736 232.858H240.258V233.838ZM252.746 230.898L253.712 231.206C252.914 232.774 251.626 234.286 250.394 235.266C250.226 235.07 249.862 234.692 249.638 234.51C250.87 233.642 252.046 232.298 252.746 230.898ZM243.044 231.808V239.508H242.246V230.94H246.586V239.466H245.76V231.808H243.044ZM244.85 232.718V236.68C244.85 238.724 244.584 241.398 242.134 243.008C242.008 242.826 241.77 242.518 241.574 242.378C243.87 240.978 244.024 238.458 244.024 236.68V232.718H244.85ZM244.514 240.152L245.158 239.69C245.802 240.432 246.572 241.454 246.936 242.084L246.222 242.63C245.9 241.972 245.158 240.922 244.514 240.152ZM254.202 236.666H251.276C251.836 238.948 252.928 240.978 254.468 241.972C254.244 242.14 253.936 242.504 253.768 242.77C252.088 241.552 250.926 239.298 250.31 236.666H249.162V241.524L251.22 240.782C251.22 241.076 251.262 241.482 251.318 241.706C248.63 242.784 248.224 242.966 248 243.162C247.93 242.91 247.748 242.504 247.58 242.308C247.818 242.196 248.196 241.93 248.196 241.384V236.666H246.936V235.7H248.196V230.576H249.162V235.7H254.202V236.666ZM265.29 233.67V231.794H258.654V233.67H265.29ZM266.368 230.856V234.594H257.632V230.856H266.368ZM268.02 236.806H259.942C259.788 237.324 259.606 237.856 259.438 238.346H266.368C266.368 238.346 266.354 238.682 266.312 238.836C265.99 241.16 265.64 242.21 265.122 242.644C264.814 242.938 264.464 243.022 263.932 243.05C263.47 243.064 262.532 243.05 261.58 242.994C261.552 242.686 261.412 242.28 261.216 242C262.21 242.098 263.204 242.112 263.61 242.112C263.932 242.112 264.114 242.098 264.268 241.972C264.618 241.706 264.898 240.936 265.15 239.312H258.514V239.298H257.884C258.178 238.626 258.514 237.66 258.808 236.806H255.924V235.854H268.02V236.806ZM271.142 232.424V234.202H270.12V231.486H275.552C275.468 231.108 275.342 230.66 275.202 230.31L276.182 230.142C276.364 230.562 276.532 231.08 276.63 231.486H281.908V234.202H280.858V232.424H271.142ZM276.896 234.104L276.35 234.776C275.846 234.272 274.81 233.628 273.942 233.236L274.488 232.634C275.328 232.998 276.378 233.614 276.896 234.104ZM271.576 234.272L272.43 234.664C271.982 235.532 271.366 236.596 270.554 237.268L269.714 236.764C270.526 236.148 271.198 235.112 271.576 234.272ZM278.072 238.038H275.118C274.264 238.038 273.774 237.954 273.522 237.674C272.43 238.136 271.31 238.528 270.19 238.85C270.064 238.626 269.77 238.192 269.574 237.982C270.834 237.66 272.094 237.268 273.256 236.778V236.736V234.062H274.194V236.358C275.986 235.49 277.554 234.412 278.604 233.096L279.5 233.53C278.282 235.014 276.546 236.218 274.628 237.156C274.768 237.184 274.95 237.184 275.174 237.184H278.002C278.674 237.184 278.786 236.988 278.856 235.63C279.08 235.798 279.458 235.938 279.724 235.994C279.584 237.632 279.29 238.038 278.072 238.038ZM279.78 241.454V239.116H280.802V243.05H279.78V242.448H271.296V239.228H272.318V241.454H275.454V238.486H276.49V241.454H279.78ZM279.206 234.86L279.948 234.342C280.816 235.098 281.852 236.162 282.328 236.904L281.53 237.478C281.096 236.736 280.074 235.63 279.206 234.86ZM287.214 240.376V236.246H285.576V240.376H287.214ZM283.756 231.99V231.024H288.53V231.99H286.444C286.234 233.152 285.94 234.286 285.576 235.322H288.138V241.314H285.576V242.448H284.666V237.394C284.442 237.8 284.204 238.178 283.938 238.514C283.868 238.262 283.63 237.674 283.462 237.408C284.442 236.092 285.086 234.118 285.464 231.99H283.756ZM294.074 239.116V240.054H288.754V239.116H294.074ZM294.382 236.386H296.104C296.104 236.386 296.09 236.708 296.076 236.848C295.768 240.6 295.446 242.056 294.956 242.56C294.676 242.854 294.424 242.966 294.004 242.98C293.64 243.022 293.01 243.008 292.338 242.98C292.31 242.686 292.212 242.294 292.044 242.014C292.73 242.098 293.346 242.098 293.598 242.098C293.836 242.098 293.99 242.07 294.13 241.93C294.494 241.58 294.788 240.348 295.054 237.282H289.412C289.594 236.148 289.776 234.3 289.874 232.942L290.84 232.998C290.77 234.062 290.63 235.35 290.504 236.386H293.416C293.584 234.986 293.766 233.292 293.878 232.074H289.216V231.122H294.06L294.214 231.066L294.942 231.15C294.83 232.592 294.62 234.664 294.382 236.386ZM299.716 238.584C300.906 238.584 301.858 239.536 301.858 240.712C301.858 241.888 300.906 242.854 299.716 242.854C298.554 242.854 297.588 241.888 297.588 240.712C297.588 239.536 298.554 238.584 299.716 238.584ZM299.716 242.14C300.514 242.14 301.13 241.51 301.13 240.712C301.13 239.942 300.514 239.298 299.716 239.298C298.946 239.298 298.302 239.942 298.302 240.712C298.302 241.51 298.946 242.14 299.716 242.14Z" fill="#50302A"/>
<circle cx="35.2376" cy="107.238" r="13.2376" fill="#D8482B"/>
<circle cx="35.2376" cy="172.238" r="13.2376" fill="#D8482B"/>
<circle cx="35.2376" cy="237.238" r="13.2376" fill="#D8482B"/>
<path d="M38.0254 113.011H33.2129V112.261H33.5801C33.9082 112.261 34.1426 112.225 34.2832 112.152C34.429 112.074 34.5176 111.967 34.5488 111.832C34.5853 111.691 34.6035 111.47 34.6035 111.167V105.089C34.6035 104.782 34.5749 104.556 34.5176 104.41C34.4655 104.264 34.3509 104.162 34.1738 104.105C34.002 104.048 33.7233 104.019 33.3379 104.019H33.0645V103.3C33.9499 103.181 34.5723 103.069 34.9316 102.964C35.291 102.86 35.6191 102.704 35.916 102.496H36.6504V111.285C36.6504 111.649 36.7129 111.904 36.8379 112.05C36.9629 112.191 37.2103 112.261 37.5801 112.261H38.0254V113.011Z" fill="white"/>
<path d="M38.9238 176.603L38.5723 178.556H37.916C37.9421 178.441 37.9551 178.35 37.9551 178.282C37.9551 178.069 37.8249 177.962 37.5645 177.962H32.4082V177.228C33.0957 176.587 33.7702 175.871 34.4316 175.079C35.0983 174.282 35.653 173.459 36.0957 172.61C36.5384 171.756 36.7598 170.949 36.7598 170.188C36.7598 169.751 36.679 169.384 36.5176 169.087C36.3613 168.785 36.1556 168.563 35.9004 168.423C35.6504 168.277 35.3822 168.204 35.0957 168.204C34.8249 168.204 34.5775 168.269 34.3535 168.399C34.1296 168.524 33.9551 168.694 33.8301 168.907C33.7051 169.121 33.6426 169.345 33.6426 169.579C33.6426 169.855 33.7493 170.212 33.9629 170.649C33.9785 170.681 33.9863 170.707 33.9863 170.728C33.9863 170.769 33.877 170.834 33.6582 170.923L33.1504 171.134C32.9785 171.207 32.877 171.243 32.8457 171.243C32.7624 171.243 32.666 171.103 32.5566 170.821C32.4473 170.54 32.3926 170.233 32.3926 169.899C32.3926 169.436 32.5098 169.019 32.7441 168.649C32.9837 168.28 33.3431 167.988 33.8223 167.774C34.3066 167.556 34.8926 167.446 35.5801 167.446C36.4238 167.446 37.0879 167.61 37.5723 167.938C38.0618 168.261 38.39 168.631 38.5566 169.048C38.7285 169.459 38.8145 169.845 38.8145 170.204C38.8145 170.933 38.5775 171.644 38.1035 172.337C37.6296 173.024 36.9811 173.78 36.1582 174.603C36.1165 174.644 35.9499 174.8 35.6582 175.071C35.3717 175.342 35.0436 175.649 34.6738 175.993C34.304 176.332 34.0827 176.535 34.0098 176.603H38.9238Z" fill="white"/>
<path d="M39.0645 239.586C39.0645 240.107 38.9551 240.594 38.7363 241.047C38.5228 241.5 38.2181 241.902 37.8223 242.25C37.4316 242.599 36.9811 242.87 36.4707 243.063C35.9603 243.256 35.4186 243.352 34.8457 243.352C34.3301 243.352 33.8717 243.284 33.4707 243.149C33.0697 243.014 32.7546 242.823 32.5254 242.579C32.3014 242.329 32.1895 242.053 32.1895 241.75C32.1895 241.48 32.2702 241.269 32.4316 241.118C32.5931 240.961 32.778 240.883 32.9863 240.883C33.2415 240.883 33.4368 240.964 33.5723 241.125C33.7129 241.282 33.8587 241.521 34.0098 241.844C34.1452 242.115 34.2832 242.308 34.4238 242.422C34.5645 242.537 34.7572 242.594 35.002 242.594C35.8405 242.594 36.3796 242.31 36.6191 241.743C36.8639 241.17 36.9863 240.586 36.9863 239.993C36.9863 239.243 36.916 238.685 36.7754 238.321C36.64 237.951 36.3848 237.766 36.0098 237.766C35.765 237.766 35.4993 237.883 35.2129 238.118C34.916 238.373 34.7025 238.5 34.5723 238.5C34.4733 238.5 34.3848 238.467 34.3066 238.399C34.2285 238.331 34.1895 238.237 34.1895 238.118C34.1895 237.998 34.2285 237.891 34.3066 237.797C34.3848 237.704 34.4993 237.607 34.6504 237.508C35.2858 237.081 35.7441 236.75 36.0254 236.516C36.3118 236.282 36.5306 236.027 36.6816 235.75C36.8327 235.474 36.9082 235.144 36.9082 234.758C36.9082 234.3 36.7624 233.951 36.4707 233.711C36.1842 233.472 35.8379 233.352 35.4316 233.352C35.1921 233.352 34.9577 233.407 34.7285 233.516C34.5046 233.62 34.3249 233.764 34.1895 233.946C34.0592 234.128 33.9941 234.318 33.9941 234.516C33.9941 234.782 34.0853 235.027 34.2676 235.25C34.3509 235.36 34.3926 235.425 34.3926 235.446C34.3926 235.482 34.3665 235.516 34.3145 235.547C34.2624 235.579 34.2103 235.61 34.1582 235.641L33.502 235.922C33.377 235.99 33.2754 236.024 33.1973 236.024C33.0723 236.024 32.9447 235.904 32.8145 235.665C32.6842 235.425 32.6191 235.175 32.6191 234.915C32.6191 234.639 32.7155 234.323 32.9082 233.969C33.1009 233.61 33.4473 233.292 33.9473 233.016C34.4473 232.735 35.1296 232.594 35.9941 232.594C36.5306 232.594 37.0072 232.662 37.4238 232.797C37.8405 232.928 38.1686 233.133 38.4082 233.415C38.653 233.691 38.7754 234.032 38.7754 234.438C38.7754 234.745 38.7051 235.034 38.5645 235.305C38.4238 235.576 38.252 235.81 38.0488 236.008C37.8457 236.206 37.6504 236.373 37.4629 236.508C37.2754 236.639 37.041 236.792 36.7598 236.969C37.5098 237 38.0697 237.256 38.4395 237.735C38.627 237.964 38.778 238.214 38.8926 238.485C39.0072 238.756 39.0645 239.123 39.0645 239.586Z" fill="white"/>
<circle cx="90" cy="32" r="30.5" fill="#D94B2F" stroke="white" stroke-width="3"/>
<path d="M177.5 32C177.5 48.8228 163.643 62.5 146.5 62.5C129.357 62.5 115.5 48.8228 115.5 32C115.5 15.1772 129.357 1.5 146.5 1.5C163.643 1.5 177.5 15.1772 177.5 32Z" fill="#D94B2F" stroke="white" stroke-width="3"/>
<path d="M233.5 32C233.5 48.8228 219.643 62.5 202.5 62.5C185.357 62.5 171.5 48.8228 171.5 32C171.5 15.1772 185.357 1.5 202.5 1.5C219.643 1.5 233.5 15.1772 233.5 32Z" fill="#D94B2F" stroke="white" stroke-width="3"/>
<circle cx="259" cy="32" r="30.5" fill="#D94B2F" stroke="white" stroke-width="3"/>
<path d="M85.94 28.892V17.384H99.856C100.323 17.384 100.724 17.5613 101.06 17.916C101.415 18.252 101.592 18.6627 101.592 19.148V28.892H85.94ZM83.42 17.636L83.812 24.076H77.904L77.512 17.636H83.42ZM92.072 19.288V21.976H95.488V19.876C95.488 19.484 95.292 19.288 94.9 19.288H92.072ZM95.488 23.908H92.072V26.96H95.488V23.908ZM83.42 25.56L83.812 32.056H77.904L77.512 25.56H83.42ZM102.572 41.548H103.412V43.452H84.12V41.548H84.96V30.012H100.836C101.303 30.012 101.704 30.1893 102.04 30.544C102.395 30.88 102.572 31.2907 102.572 31.776V41.548ZM90 41.548H90.924V31.916H90V41.548ZM94.228 31.916H93.332V41.548H94.228V31.916ZM96.636 31.916V41.548H97.588V32.504C97.588 32.112 97.392 31.916 97 31.916H96.636ZM77.82 33.4H83.812L82.86 43.452H76.924L77.82 33.4ZM137.6 19.568H133.428V17.86H137.6V16.824H143.508V17.86H147.484V19.568H143.508V20.296H146.784V22.004H134.324V20.296H137.6V19.568ZM152.72 21.388H148.072V16.852H157.144C157.611 16.852 158.012 17.0293 158.348 17.384C158.703 17.72 158.88 18.1307 158.88 18.616V21.388H154.4V19.12C154.4 18.728 154.204 18.532 153.812 18.532H152.72V21.388ZM154.428 24.244C154.428 23.852 154.232 23.656 153.84 23.656H148.072V21.92H157.2C157.667 21.92 158.068 22.0973 158.404 22.452C158.759 22.788 158.936 23.1987 158.936 23.684V25.42L156.416 27.044L160.084 29.536H154.204L153.42 28.976L152.552 29.536H147.204L150.704 27.1L148.1 25.28V24.048H152.664V24.524L153.532 25.112L154.428 24.496V24.244ZM145.608 22.676C146.093 22.676 146.504 22.8533 146.84 23.208C147.176 23.544 147.344 23.9547 147.344 24.44V27.912H139V29.984H133.848V22.676H145.608ZM140.26 24.328H139V26.204H140.26V24.328ZM143.956 24.916C143.956 24.524 143.76 24.328 143.368 24.328H142.612V26.204H143.956V24.916ZM149.528 32.448H159.524V34.296H157.368L158.18 36.004H152.048L151.18 34.296H149.528V36.004H143.06V34.296H141.352L140.54 36.004H134.408L135.192 34.296H133.596V32.448H143.06V31.832L135.444 31.972V30.18L156.976 29.76V31.552L149.528 31.692V32.448ZM156.136 36.48C156.603 36.48 157.004 36.6573 157.34 37.012C157.695 37.348 157.872 37.7587 157.872 38.244V43.34H134.856V36.48H156.136ZM141.24 39.028H151.572V38.86C151.572 38.468 151.376 38.272 150.984 38.272H141.24V39.028ZM151.684 40.792H141.296V41.576H151.684V40.792ZM197.52 22.088H198.696V23.992H197.52V30.32L198.696 30.04V31.944L197.52 32.224V43.396H190.016V41.408H190.912V33.82L189.568 34.156V32.252L190.912 31.916V23.992H189.568V22.088H190.912V16.88H197.52V22.088ZM215.748 28.64H199.9V17.524H214.012C214.497 17.524 214.908 17.692 215.244 18.028C215.58 18.364 215.748 18.7747 215.748 19.26V28.64ZM209.924 19.988C209.924 19.6147 209.737 19.428 209.364 19.428H206.256V22.116H209.924V19.988ZM209.924 23.992H206.256V26.708H209.924V23.992ZM216.56 41.52V43.508H205.136L203.82 42.08L203.736 43.508H198.724L199.48 33.456H204.38L204.212 36.144L205.108 37.656V31.916H199.116V30.012H216.532V31.916H211.996V35.976H216.308V37.852H211.996V41.52H216.56ZM247.808 17.552H271.244V19.456H247.808V17.552ZM272.42 26.932H263.432V43.424H253.604V41.576H256.404V26.932H246.604V25.056H272.42V26.932ZM246.352 42.08L248.312 28.724H254.024L252.148 42.08H246.352ZM265.308 28.724H270.964L272.98 42.08H267.156L265.308 28.724Z" fill="white"/>
</svg>
