<svg class="icon" viewBox="0 0 1024 1024" xmlns="http://www.w3.org/2000/svg" width="200" height="200"><defs><style/></defs><path d="M603.144 49.243L48.15 483.723c-12.743 8.252-19.54 23.908-15.656 39.442 2.306 9.345 8.01 16.991 15.534 21.724L603.144 979.49c6.31 4.976 15.655.486 15.655-7.646v-63.108c0-5.947-2.79-11.651-7.403-15.292L181.53 557.026c-3.641-2.792-1.578-8.617 3.034-8.617h798.325c5.34 0 9.71-4.37 9.71-9.71v-48.544c0-5.34-4.37-9.71-9.71-9.71H184.563c-4.612 0-6.675-5.825-3.034-8.616l429.867-336.54c4.733-3.64 7.403-9.345 7.403-15.291v-63.11c0-8.01-9.345-12.62-15.655-7.645z"/></svg>