<svg class="icon" viewBox="0 0 1024 1024" xmlns="http://www.w3.org/2000/svg" width="200" height="200"><defs><style/></defs><path d="M420.856 49.243l554.993 434.48c12.743 8.252 19.54 23.908 15.656 39.442-2.306 9.345-8.01 16.991-15.534 21.724L420.856 979.611c-6.31 4.976-15.655.486-15.655-7.645v-63.11c0-5.946 2.79-11.65 7.403-15.29l429.867-336.54c3.641-2.792 1.578-8.617-3.034-8.617H41.112c-5.34 0-9.71-4.37-9.71-9.71v-48.544c0-5.34 4.37-9.71 9.71-9.71h798.325c4.612 0 6.675-5.825 3.034-8.616l-429.746-336.54c-4.733-3.64-7.403-9.345-7.403-15.291v-63.11c-.121-8.01 9.224-12.62 15.534-7.645z"/></svg>