<svg class="icon" viewBox="0 0 1024 1024" xmlns="http://www.w3.org/2000/svg" width="200" height="200"><defs><style/></defs><path d="M978.034 1016.87H45.966A38.836 38.836 0 017.13 978.034V45.966a38.836 38.836 0 0177.672 0v893.232h893.232a38.836 38.836 0 010 77.672z"/><path d="M317.82 978.034a38.836 38.836 0 01-38.837-38.836V550.836a38.836 38.836 0 0177.672 0v388.362a38.836 38.836 0 01-38.836 38.836zm271.852 0a38.836 38.836 0 01-38.836-38.836v-504.87a38.836 38.836 0 0177.672 0v504.87a38.836 38.836 0 01-38.836 38.836zm271.853 0a38.836 38.836 0 01-38.836-38.836V356.655a38.836 38.836 0 0177.672 0v582.543a38.836 38.836 0 01-38.836 38.836zM201.311 395.492a39.613 39.613 0 01-31.07-15.535 38.836 38.836 0 017.768-54.37L488.7 92.57a38.06 38.06 0 0150.486 0l132.043 131.266L954.732 14.897a38.836 38.836 0 1146.603 62.138L690.646 310.052a38.06 38.06 0 01-50.487-3.884L512 174.902 224.613 387.724a38.06 38.06 0 01-23.302 7.768z"/></svg>