<svg class="icon" viewBox="0 0 1025 1024" xmlns="http://www.w3.org/2000/svg" width="200.195" height="200"><defs><style/></defs><path d="M874.02 874.02c-199.931 199.974-524.106 199.974-724.037 0-199.975-199.933-199.975-524.107 0-724.04 199.931-199.974 524.106-199.974 724.038 0 199.974 199.933 199.974 524.107 0 724.04zm-60.329-663.71c-166.61-166.61-436.77-166.61-603.379 0-166.61 166.61-166.61 436.77 0 603.38s436.77 166.61 603.38 0 166.61-436.77 0-603.38zm-86.74 509.088l-7.55 7.552a37.29 37.29 0 01-52.778 0L512.002 572.33 361.136 723.195a42.666 42.666 0 01-60.33-60.372L451.672 512l-154.62-154.62a37.29 37.29 0 010-52.778l7.551-7.552a37.29 37.29 0 0152.778 0l154.62 154.62 150.867-150.866a42.666 42.666 0 0160.33 60.33L572.33 512l154.62 154.62a37.29 37.29 0 010 52.778z"/></svg>