<svg class="icon" viewBox="0 0 1024 1024" xmlns="http://www.w3.org/2000/svg" width="200" height="200"><defs><style/></defs><path d="M577.691 513.767l399.45-399.45c18.411-18.41 18.411-48.31 0-66.721s-48.311-18.412-66.722 0l-399.45 399.597-399.45-399.597c-18.41-18.412-48.31-18.412-66.722 0s-18.411 48.31 0 66.722l399.597 399.597-399.597 399.45c-18.411 18.41-18.411 48.31 0 66.722s48.311 18.41 66.722 0L511.116 580.49l399.597 399.597c18.411 18.41 48.311 18.41 66.722 0s18.412-48.311 0-66.723L577.691 513.767z"/></svg>