<svg class="icon" viewBox="0 0 1024 1024" xmlns="http://www.w3.org/2000/svg" width="200" height="200"><defs><style/></defs><path d="M983.67 457.627L850.219 324.174c-4.866-4.867-11.324-7.487-18.156-7.487s-13.289 2.62-18.155 7.487L465.114 672.967a25.904 25.904 0 00-6.551 11.137l-52.034 183.614c-2.527 8.891-.093 18.437 6.458 24.988 4.772 4.866 11.417 7.58 18.249 7.58 2.246 0 4.492-.28 6.644-.842l185.487-50.162c4.305-1.216 8.235-3.463 11.417-6.644l348.887-348.794c4.866-4.866 7.487-11.323 7.487-18.155 0-6.832-2.714-13.196-7.487-18.062zM506.573 734.453l66.446 66.445-92.37 24.988 25.924-91.433zm118.292 33.503l-84.976-84.975 292.174-292.268 84.976 84.976-292.174 292.267z"/><path d="M841.42 838.239c-16.564 0-29.946 13.383-29.946 29.947 0 35.282-28.638 63.92-63.92 63.92H92.738V91.987h459.037l179.871 180.995c11.698 11.698 30.603 11.791 42.394.093 11.699-11.698 11.792-30.602.094-42.394L576.668 32H32.842v960h714.713c68.224 0 123.813-55.496 123.813-123.814 0-16.564-13.382-29.947-29.947-29.947z"/><path d="M422.158 213.65H182.579c-16.565 0-29.947 13.382-29.947 29.947s13.382 29.947 29.947 29.947h239.579c16.565 0 29.947-13.383 29.947-29.947s-13.382-29.948-29.947-29.948zm0 179.684H182.579c-16.565 0-29.947 13.382-29.947 29.947s13.382 29.947 29.947 29.947h239.579c16.565 0 29.947-13.382 29.947-29.947s-13.382-29.947-29.947-29.947zm0 179.684H182.579c-16.565 0-29.947 13.382-29.947 29.947s13.382 29.947 29.947 29.947h239.579c16.565 0 29.947-13.382 29.947-29.947s-13.382-29.947-29.947-29.947z"/></svg>