<svg class="icon" viewBox="0 0 1024 1024" xmlns="http://www.w3.org/2000/svg" width="200" height="200"><defs><style/></defs><path d="M512 258.276c-33.337 0-60.302 26.965-60.302 60.302S478.663 378.88 512 378.88s60.302-26.965 60.302-60.302-26.965-60.302-60.302-60.302zM402.546 427.349v72.59h73.045v280.235h72.932V427.35z"/><path d="M512 1.138C229.831 1.138 1.138 229.83 1.138 512S229.83 1022.862 512 1022.862 1022.862 794.17 1022.862 512 794.17 1.138 512 1.138zm0 948.906C270.108 950.044 73.956 753.892 73.956 512S270.108 73.956 512 73.956 950.044 270.108 950.044 512 753.892 950.044 512 950.044z"/></svg>