<svg class="icon" viewBox="0 0 1024 1024" xmlns="http://www.w3.org/2000/svg" width="200" height="200"><defs><style/></defs><path d="M985.316 985.316c-14.109 0-27.535-8.192-33.451-22.073l-53.02-123.563H634.88l-53.02 123.563c-7.965 18.432-29.355 27.079-47.787 19.114s-27.08-29.354-19.115-47.786l218.454-509.725c5.688-13.426 18.887-22.073 33.45-22.073s27.762 8.647 33.45 22.073l218.454 509.725c7.965 18.432-.682 39.822-19.114 47.786-4.78 2.048-9.558 2.959-14.336 2.959zm-319.26-218.454h201.613L766.862 531.57 666.055 766.862zM111.501 839.68c-12.515 0-24.576-6.372-31.402-17.977-10.24-17.294-4.552-39.595 12.743-49.835 1.365-.682 135.168-81.01 261.006-235.064 89.43-109.455 142.905-246.216 166.343-316.075H38.684c-20.024 0-36.408-16.384-36.408-36.409s16.384-36.409 36.408-36.409h291.272V75.093c0-20.025 16.384-36.409 36.408-36.409s36.41 16.384 36.41 36.41v72.817h291.27c20.025 0 36.41 16.384 36.41 36.409s-16.385 36.409-36.41 36.409h-97.166c-19.797 64.398-77.596 228.92-186.368 362.04C276.025 747.52 135.85 831.034 129.934 834.675c-5.689 3.413-12.06 5.006-18.432 5.006z"/><path d="M512 730.453c-7.737 0-15.474-2.503-22.3-7.509-3.414-2.73-84.424-65.536-170.44-177.266-85.333-110.592-129.251-195.47-131.072-199.11-9.102-17.978-2.048-39.823 15.702-48.925 17.977-9.103 39.822-2.048 48.924 15.701.455.91 43.008 82.83 123.79 187.733 79.872 103.766 156.559 163.385 157.241 164.068 15.93 12.288 18.887 35.271 6.6 50.972-6.827 9.558-17.522 14.336-28.445 14.336z"/></svg>