<svg class="icon" viewBox="0 0 1024 1024" xmlns="http://www.w3.org/2000/svg" width="200" height="200"><defs><style/></defs><path d="M965.973 839.68H55.751c-30.151 0-54.613 24.462-54.613 54.613S25.6 948.907 55.75 948.907h910.222c30.151 0 54.614-24.463 54.614-54.614s-24.463-54.613-54.614-54.613zM55.751 566.613h546.133c30.152 0 54.614-24.462 54.614-54.613s-24.462-54.613-54.614-54.613H55.751C25.6 457.387 1.138 481.849 1.138 512S25.6 566.613 55.75 566.613zm761.515 123.335l187.847-164.18c7.623-6.6 8.306-18.092 1.707-25.715-.57-.569-1.138-1.251-1.707-1.706l-187.847-163.84c-3.755-3.3-9.558-2.959-12.857.91-1.48 1.707-2.276 3.755-2.276 6.03v341.675c0 5.006 4.096 9.102 9.103 9.102 2.161 0 4.323-.796 6.03-2.276zM55.75 184.32h910.222c30.151 0 54.614-24.462 54.614-54.613s-24.463-54.614-54.614-54.614H55.751c-30.151 0-54.613 24.463-54.613 54.614S25.6 184.32 55.75 184.32z"/></svg>