<svg class="icon" viewBox="0 0 1097 1024" xmlns="http://www.w3.org/2000/svg" width="214.258" height="200"><defs><style/></defs><path d="M1018.22 882.103c24.503 0 36.79-12.288 36.79-36.791 0-24.503-12.287-36.718-36.79-36.718H907.994V441.051c-2.195-96.694-33.207-178.395-93.038-245.028l-14.336-15.14a354.523 354.523 0 00-175.177-97.208l-11.484-2.194V73.51a75.337 75.337 0 00-14.336-43.01l-7.607-8.704A74.24 74.24 0 00540.451 0a74.24 74.24 0 00-73.509 73.509v7.899l-11.483 2.267a352.768 352.768 0 00-160.037 82.871l-15.14 14.336c-69.267 69.34-105.107 156.014-107.374 260.17v367.542h-110.3c-21.723 0-33.865 9.655-36.278 29.038l-.44 7.68c0 24.503 12.216 36.79 36.718 36.79h955.612zm-183.735-73.509H246.416V441.051c2.268-83.456 31.013-152.795 86.163-207.872 55.076-55.15 124.343-83.894 207.872-86.162 83.383 2.268 152.722 31.013 207.872 86.162 55.15 55.077 83.821 124.343 86.162 207.872v367.543zM540.451 1024c20.626 0 37.888-5.998 51.639-18.066a61.294 61.294 0 0021.87-45.276H466.941c.732 18.14 8.046 33.207 21.797 45.276C502.563 1018.002 519.75 1024 540.45 1024z"/></svg>