<svg class="icon" viewBox="0 0 1024 1024" xmlns="http://www.w3.org/2000/svg" width="200" height="200"><defs><style/></defs><path d="M128.784 381.394c-52.822 0-95.651 42.769-95.651 95.659 0 52.867 42.829 95.634 95.651 95.634 52.826 0 95.653-42.768 95.653-95.634 0-52.89-42.827-95.659-95.653-95.659zm382.612 0c-52.826 0-95.653 42.769-95.653 95.659 0 52.867 42.827 95.634 95.653 95.634 52.822 0 95.651-42.768 95.651-95.634 0-52.89-42.829-95.659-95.651-95.659zm382.608 0c-52.822 0-95.651 42.769-95.651 95.659 0 52.867 42.83 95.634 95.651 95.634 52.826 0 95.653-42.768 95.653-95.634-.001-52.89-42.827-95.659-95.653-95.659zm0 0"/></svg>