<svg class="icon" viewBox="0 0 1024 1024" xmlns="http://www.w3.org/2000/svg" width="200" height="200"><defs><style/></defs><path d="M736.082 301.315c-16.046 4.305-32.543-5.208-36.863-21.284l-12.794-50.771C659.406 128.425 567.242 68.472 462.689 96.484 357.053 124.783 310.918 223.615 337.485 322.75l20.335 91.216c4.305 16.076-5.223 32.573-21.298 36.878-16.061 4.305-32.558-5.208-36.863-21.284l-20.336-91.231C244.161 207.103 309.413 75.216 447.11 38.323 584.266 1.58 708.837 80.228 744.586 213.666l12.81 50.77c4.305 16.092-5.223 32.574-21.314 36.879z"/><path d="M782.954 994.724H241.076c-66.41 0-120.418-54.008-120.418-120.418V513.054c0-66.41 54.008-120.418 120.418-120.418h541.878c66.41 0 120.418 54.007 120.418 120.418v361.252c0 66.41-54.007 120.418-120.418 120.418zm-541.878-541.88c-33.19 0-60.209 27.02-60.209 60.21v361.252c0 33.19 27.019 60.209 60.209 60.209h541.878c33.19 0 60.21-27.019 60.21-60.209V513.054c0-33.19-27.02-60.21-60.21-60.21H241.076z"/><path d="M512.015 573.262c33.25 0 60.209 26.959 60.209 60.21s-26.959 60.208-60.209 60.208-60.209-26.959-60.209-60.209 26.959-60.209 60.21-60.209z"/><path d="M512.015 633.471c16.618 0 30.104 13.472 30.104 30.104v120.418c0 16.618-13.486 30.104-30.104 30.104-16.633 0-30.104-13.486-30.104-30.104V663.575c0-16.647 13.456-30.104 30.104-30.104z"/></svg>