<svg class="icon" viewBox="0 0 1024 1024" xmlns="http://www.w3.org/2000/svg" width="200" height="200"><defs><style/></defs><path d="M751.714 716.828l214.24 214.263a22.093 22.093 0 010 31.24l-15.62 15.642a22.093 22.093 0 01-31.24 0L700.192 759.049a400.157 400.157 0 01-228.049 70.92c-222.039-.022-402.012-180.017-402.012-402.035 0-222.017 179.973-401.99 402.012-401.99 222.018 0 401.99 179.973 401.99 402.013 0 113.383-46.926 215.786-122.441 288.871zm-279.57 46.839c185.408 0 335.71-150.302 335.71-335.71 0-185.43-150.302-335.733-335.71-335.733-185.43 0-335.733 150.302-335.733 335.733 0 185.408 150.302 335.71 335.732 335.71z"/></svg>