<svg class="icon" viewBox="0 0 1031 1024" xmlns="http://www.w3.org/2000/svg" width="201.367" height="200"><defs><style/></defs><path d="M512 723.2c-115.2 0-211.2-96-211.2-211.2s96-211.2 211.2-211.2 211.2 96 211.2 211.2-96 211.2-211.2 211.2zm0-358.4c-83.2 0-147.2 64-147.2 147.2s64 147.2 147.2 147.2 147.2-64 147.2-147.2-64-147.2-147.2-147.2z"/><path d="M569.6 1024H454.4c-25.6 0-51.2-19.2-51.2-51.2l-6.4-89.6c-25.6-6.4-51.2-19.2-70.4-32l-64 57.6c-19.2 19.2-51.2 19.2-70.4 0L108.8 832c-19.2-19.2-19.2-51.2 0-70.4l57.6-64c-12.8-25.6-19.2-44.8-32-70.4l-83.2-6.4c-32 0-51.2-19.2-51.2-51.2V454.4c0-25.6 19.2-51.2 51.2-51.2l89.6-6.4c6.4-25.6 19.2-51.2 32-70.4l-57.6-64C96 256 96 243.2 96 230.4s6.4-25.6 12.8-38.4l83.2-83.2c19.2-19.2 51.2-19.2 70.4 0l64 57.6c25.6-12.8 44.8-19.2 70.4-32l6.4-89.6c0-25.6 19.2-44.8 51.2-44.8H576c25.6 0 51.2 19.2 51.2 51.2l6.4 89.6c25.6 6.4 51.2 19.2 70.4 32l64-57.6c19.2-19.2 51.2-19.2 70.4 0l76.8 76.8c19.2 19.2 19.2 51.2 0 70.4l-57.6 64c12.8 25.6 19.2 44.8 32 70.4l89.6 6.4c25.6 0 51.2 25.6 51.2 51.2V576c0 25.6-19.2 51.2-51.2 51.2l-89.6 6.4c-6.4 25.6-19.2 51.2-32 70.4l57.6 64c6.4 6.4 12.8 19.2 12.8 32s-6.4 25.6-12.8 38.4L832 915.2c-19.2 19.2-51.2 19.2-70.4 0l-64-57.6c-25.6 12.8-44.8 19.2-70.4 32l-6.4 89.6c0 25.6-19.2 44.8-51.2 44.8zm-102.4-64h96l6.4-121.6 19.2-6.4c32-6.4 64-19.2 96-38.4l19.2-12.8 89.6 83.2 64-64-76.8-96 12.8-19.2c19.2-32 32-64 38.4-96l6.4-25.6 121.6-6.4v-89.6l-121.6-6.4-6.4-25.6c-6.4-32-19.2-64-38.4-96L780.8 320l83.2-89.6-64-64-96 76.8-19.2-12.8c-32-19.2-64-32-96-38.4l-25.6-6.4L556.8 64h-89.6l-6.4 121.6-25.6 6.4c-32 6.4-64 19.2-96 38.4L320 243.2 230.4 160l-64 64 76.8 96-12.8 19.2c-12.8 32-32 64-38.4 96l-6.4 25.6L64 467.2v96l121.6 6.4 6.4 19.2c6.4 32 19.2 64 38.4 96l12.8 19.2-83.2 89.6 64 64 96-76.8 19.2 12.8c32 19.2 64 32 96 38.4l25.6 6.4 6.4 121.6z"/></svg>