<svg class="icon" viewBox="0 0 1024 1024" xmlns="http://www.w3.org/2000/svg" width="200" height="200"><defs><style/></defs><path d="M932.523 817.35c-22.938-54.371-55.949-103.16-97.819-145.03-41.87-41.87-90.658-74.76-145.029-97.818-.485-.243-.97-.364-1.456-.607 75.61-54.613 124.761-143.572 124.761-243.94 0-166.267-134.713-300.98-300.98-300.98s-300.98 134.713-300.98 300.98c0 100.368 49.152 189.327 124.761 244.061-.485.243-.97.365-1.456.607-54.371 22.938-103.159 55.827-145.03 97.819-41.87 41.87-74.759 90.658-97.818 145.029-22.573 53.157-34.588 109.59-35.802 167.602-.121 5.461 4.248 9.952 9.71 9.952h72.817a9.69 9.69 0 009.71-9.467c2.426-93.692 40.049-181.437 106.556-247.944C323.28 668.8 414.667 630.936 512 630.936S700.72 668.8 769.532 737.614c66.507 66.507 104.13 154.252 106.557 247.944.121 5.34 4.369 9.467 9.709 9.467h72.818c5.461 0 9.83-4.49 9.709-9.952-1.214-58.012-13.229-114.445-35.802-167.724zM512 538.7c-55.706 0-108.134-21.724-147.577-61.167s-61.167-91.872-61.167-147.577c0-55.706 21.724-108.135 61.167-147.578S456.294 121.211 512 121.211s108.134 21.724 147.577 61.167 61.167 91.872 61.167 147.578c0 55.705-21.724 108.134-61.167 147.577S567.706 538.7 512 538.7z"/></svg>