<svg width="26" height="26" viewBox="0 0 26 26" fill="none" xmlns="http://www.w3.org/2000/svg">
<path d="M19.0012 15.4668C18.8135 15.4669 18.6314 15.402 18.4861 15.2831C17.9271 14.8244 17.3189 14.4293 16.6726 14.105C16.4865 14.0052 16.3466 13.8369 16.2825 13.6357C16.2184 13.4346 16.2351 13.2163 16.3291 13.0272C16.4231 12.8382 16.587 12.6931 16.7861 12.6228C16.9852 12.5525 17.2039 12.5625 17.3957 12.6506C18.1432 13.0228 18.8566 13.4859 19.518 14.027C19.6472 14.1334 19.7404 14.2772 19.7849 14.4386C19.8293 14.6 19.8228 14.7712 19.7663 14.9287C19.7097 15.0863 19.6059 15.2226 19.4689 15.3189C19.332 15.4152 19.1687 15.4668 19.0012 15.4668ZM2.00049 24.9681C1.785 24.9681 1.57834 24.8825 1.42597 24.7302C1.27359 24.5778 1.18799 24.3711 1.18799 24.1556V22.6899C1.18634 20.4927 1.83076 18.3435 3.04107 16.5096C4.25139 14.6758 5.97418 13.2383 7.99512 12.376C8.19108 12.3031 8.40757 12.3084 8.59972 12.3908C8.79188 12.4732 8.94497 12.6264 9.02728 12.8186C9.10959 13.0108 9.1148 13.2273 9.04184 13.4232C8.96888 13.6191 8.82333 13.7795 8.63537 13.871C6.9068 14.6078 5.43314 15.8367 4.39786 17.4048C3.36257 18.9729 2.81141 20.8109 2.81299 22.6899V24.1556C2.81299 24.3711 2.72739 24.5778 2.57502 24.7302C2.42264 24.8825 2.21598 24.9681 2.00049 24.9681Z" fill="#9E2E17"/>
<path d="M12.8406 15.4636C10.9117 15.4614 9.06252 14.6943 7.69864 13.3304C6.33476 11.9665 5.56758 10.1173 5.56543 8.18846C5.56758 6.25963 6.33476 4.41042 7.69864 3.04654C9.06252 1.68266 10.9117 0.915481 12.8406 0.91333C14.7694 0.915481 16.6186 1.68266 17.9825 3.04654C19.3464 4.41042 20.1135 6.25963 20.1157 8.18846C20.1135 10.1173 19.3464 11.9665 17.9825 13.3304C16.6186 14.6943 14.7694 15.4614 12.8406 15.4636ZM12.8406 2.53833C11.3426 2.54005 9.90644 3.13588 8.84721 4.19511C7.78798 5.25434 7.19215 6.69048 7.19043 8.18846C7.19043 11.3036 9.72543 13.8386 12.8406 13.8386C15.9557 13.8386 18.4907 11.3036 18.4907 8.18846C18.489 6.69048 17.8931 5.25434 16.8339 4.19511C15.7747 3.13588 14.3385 2.54005 12.8406 2.53833ZM20.5512 25.0868C20.3906 25.0868 20.2336 25.0392 20.1001 24.95C19.9666 24.8608 19.8625 24.7341 19.8009 24.5858C19.7394 24.4375 19.7231 24.2742 19.7543 24.1167C19.7854 23.9592 19.8626 23.8144 19.9759 23.7007L22.8489 20.8277L19.9759 17.9547C19.8279 17.8015 19.746 17.5962 19.7479 17.3832C19.7497 17.1702 19.8352 16.9664 19.9858 16.8157C20.1365 16.6651 20.3403 16.5796 20.5533 16.5778C20.7663 16.5759 20.9716 16.6578 21.1248 16.8058L24.5714 20.2525C24.7238 20.4048 24.8093 20.6114 24.8093 20.8269C24.8093 21.0423 24.7238 21.249 24.5714 21.4013L21.1248 24.848C21.0498 24.9238 20.9605 24.984 20.862 25.025C20.7635 25.066 20.6579 25.087 20.5512 25.0868Z" fill="#9E2E17"/>
<path d="M23.0995 21.6384H16.6499C16.4344 21.6384 16.2278 21.5528 16.0754 21.4005C15.923 21.2481 15.8374 21.0414 15.8374 20.8259C15.8374 20.6104 15.923 20.4038 16.0754 20.2514C16.2278 20.099 16.4344 20.0134 16.6499 20.0134H23.0995C23.315 20.0134 23.5217 20.099 23.6741 20.2514C23.8264 20.4038 23.912 20.6104 23.912 20.8259C23.912 21.0414 23.8264 21.2481 23.6741 21.4005C23.5217 21.5528 23.315 21.6384 23.0995 21.6384Z" fill="#9E2E17"/>
</svg>
